<svg xmlns="http://www.w3.org/2000/svg" width="1610.57" height="1546.94" viewBox="0 0 1610.57 1546.94"><defs><style>.cls-1{fill:none;stroke:#fff;stroke-miterlimit:10;stroke-width:2px;}</style></defs><title>Asset 1</title><g id="Layer_2" data-name="Layer 2"><g id="Calque_3" data-name="Calque 3"><polygon class="cls-1" points="266 1025.39 269.5 1031.39 273.5 1040.89 277.5 1045.89 283.5 1045.89 286.5 1045.89 286.5 1048.39 286.5 1050.89 286.5 1055.39 284 1059.89 291.5 1066.39 301 1071.39 309.5 1071.39 316 1073.89 322.5 1073.89 325.5 1077.89 325.5 1082.44 325.5 1085.39 322 1088.89 328.5 1088.89 333 1088.89 340 1092.39 347 1092.39 351.5 1092.39 357.5 1092.39 360.5 1097.39 360.5 1103.39 363 1103.39 363 1108.39 363 1110.39 363 1112.39 363 1117.89 371.2 1122.39 375 1119.89 385 1119.89 391 1124.89 394.5 1130.39 399 1126.89 404.5 1127.39 411.5 1130.39 414 1130.39 418.5 1133.39 421 1133.39 425.5 1133.39 431.5 1133.39 438.5 1138.39 444.5 1141.39 447 1135.89 447 1131.89 454 1132.39 459 1131.39 466 1128.39 466 1124.39 466 1120.89 462.5 1115.39 460 1115.39 455 1111.89 455 1108.89 452.5 1106.89 455 1104.89 450.5 1103.39 450 1098.39 456 1099.39 459.5 1094.89 462 1092.89 459.5 1088.89 457 1086.39 453.5 1082.94 452 1078.89 452.5 1075.89 450.5 1070.39 449.5 1065.89 450.5 1061.89 453 1056.39 455 1052.39 455 1048.39 453 1045.89 451 1041.39 457.5 1039.39 458 1034.39 461.5 1034.39 466 1035.39 469.5 1028.89 477 1025.39 482.92 1029.39 487 1031.89 487 1049.39 491 1057.89 491 1059.89 485.5 1060.39 482.92 1066.89 482.92 1074.89 491 1082.94 488.5 1086.39 486 1090.89 482.92 1095.39 487 1100.39 491 1098.39 494.5 1100.39 497.5 1097.89 504 1096.39 507 1092.89 511 1091.89 518 1091.89 525 1087.89 529 1087.89 533.5 1083.39 533.5 1079.89 533.5 1076.39 538 1077.89 538 1074.39 538 1070.89 535.5 1069.89 530.5 1061.89 538 1057.39 538 1051.89 534 1044.89 531.5 1038.39 534.5 1035.89 538 1033.89 538 1031.39 542.5 1032.39 542.5 1034.39 548 1033.39 545.5 1029.89 548 1029.89 553 1034.89 558 1037.39 563 1036.89 567.5 1035.39 567.5 1031.89 567.5 1029.89 567.5 1025.39 571 1025.39 574 1019.89 570 1016.94 574 1009.39 578.5 1009.39 578.5 1005.89 583.5 1007.39 590 1013.89 593.5 1016.94 596 1016.94 603.5 1026.89 610 1032.39 615 1037.89 626.5 1040.89 629.5 1040.89 643.5 1036.89 643.5 1029.89 643.5 1026.89 649 1022.89 645 1019.89 639 1016.94 634 1016.94 628.5 1013.89 623.5 1008.39 625 1004.89 621.5 1001.39 617.5 997.39 611.5 997.39 608.5 997.39 604 997.39 600 997.39 599 994.39 594 994.39 589 994.39 586 994.39 588 991.89 594.5 984.89 597.5 980.39 595.5 980.39 595 975.39 592.5 971.89 592 969.39 596.5 966.39 600 966.39 604 966.39 607.5 962.39 610 959.89 614 955.89 617.5 952.89 622 947.89 626.5 939.89 623.5 936.89 619.5 933.39 621.5 930.39 621 927.39 619 927.39 620.5 922.39 620.5 918.89 617.5 918.89 615.5 915.39 616 908.89 617.5 904.89 617.5 900.89 614.5 897.39 611.5 894.89 607 894.89 604 894.89 600 899.39 599 902.39 591 899.89 590.5 894.89 588 897.39 584.5 894.89 584 890.89 580.5 890.89 576.5 879.39 576 868.39 572.5 863.39 569 859.89 567 856.39 564 858.89 559 856.39 553.5 856.39 548 848.89 555 845.89 558.5 842.39 561.5 837.39 566.5 833.39 573.5 833.39 583 833.39 591.5 827.89 598.5 827.89 604.5 827.89 612 825.39 618 822.39 624.5 817.39 638 817.39 655.5 817.39 661 813.23 677.5 817.89 695 819.39 699.5 819.89 707.5 815.89 720 816.39 730.5 806.39 735 806.39 741.5 798.39 741.5 791.39 735 791.39 732 786.39 730 780.89 728.5 776.19 728.5 770.39 730 765.89 729.5 760.39 726.5 756.89 722.5 752.89 722.5 747.89 725 741.89 724 733.39 710 733.39 706 733.39 700.5 730.39 696.5 724.39 689 720.89 681.5 720.89 668 720.89 659.5 723.39 652.5 720.89 643.5 720.89 639.5 714.89 635 709.89 632.5 704.39 633 701.39 639 696.39 639.5 692.89 634 690.39 627 692.89 632 672.39 640.5 675.39 652.5 675.39 662.5 679.39 670.5 677.39 675.5 677.39 683.5 681.39 689 680.39 690.5 676.89 696.5 675.89 701 669.89 705 665.89 707 662.39 702 659.39 697.5 655.89 690 655.89 686.5 655.89 675 646.89 671 641.89 667 641.89 664 641.89 655 641.89 649.5 635.89 644.5 631.39 643.5 623.39 643.5 614.39 638 614.39 638 611.89 635.5 611.89 637 587.39 633.5 587.39 633.5 583.39 627.5 580.39 629.5 569.39 621 571.89 615 569.94 607.5 562.39 604 564.89 602 556.39 608 552.39 612 544.89 608 540.89 606 531.89 586.5 523.39 568 517.89 560.5 512.39 555 505.89 554.5 499.89 548 494.89 542.5 494.89 538.5 494.89 535.5 491.39 529.5 491.39 521 491.39 515 487.81 509.5 487.81 507 490.39 509 494.89 511.5 497.89 511 506.39 508.5 508.89 497.5 513.39 497.5 509.39 492.5 510.89 481.5 519.89 474 521.39 470.5 522.39 468 524.39 463 522.89 458.5 523.39 454.5 524.39 452 528.39 452.5 533.39 447.5 532.39 442 532.89 438 534.39 437.5 543.39 434.5 548.89 430.5 550.89 430.5 558.89 423.5 565.89 418 565.39 409.5 566.89 399.5 566.89 399.5 573.39 396.5 575.39 393 574.39 389 569.94 380 569.94 376 573.89 371.2 572.89 359.5 569.94 352 567.39 346 563.39 342 565.39 335 565.89 330 567.89 325 572.89 313.5 574.39 305 576.39 297.5 580.89 292 586.39 287.5 585.89 285.5 573.89 271.5 585.89 266 587.89 258.5 587.39 249.5 588.89 246 596 246 597.89 240 596 235 599.89 229.5 602.89 227 609.39 227 614.39 230.5 614.89 227 616.89 224.5 619.39 227.5 625.39 230 628.89 224.5 630.39 221.5 633.39 221.5 639.39 219 645.89 221.5 651.89 219 657.89 219 661.39 219 667.39 219 670.89 215.5 674.89 210 676.39 202.5 677.39 194.5 678.39 192 682.89 192 693.89 192 698.89 182 698.89 176.5 697.39 176.5 692.39 179 685.89 179.5 683.39 169 684.39 161 686.89 153 696.39 148 697.39 148 691.89 148 685.89 143.5 684.39 139 685.39 136.5 682.39 132.5 681.89 127 687.89 123 693.89 120 700.89 120 707.89 116 711.89 116 714.39 112 715.89 107 714.89 102 715.39 98.5 718.39 92.5 712.89 90 705.89 90 698.89 90 695.39 84.5 692.89 78 693.89 72 697.39 66 699.39 60.5 704.39 56.5 708.39 53 711.39 50.5 717.89 50.5 724.89 50.5 727.39 48 733.39 53.5 739.89 53.5 742.39 48 744.89 48 742.89 45.5 739.89 40 737.89 33 744.89 25 748.39 16.5 753.89 11 758.89 6.5 762.89 1 763.39 1 769.39 10 776.19 18.5 782.39 18.5 787.89 20.5 794.39 20.5 802.89 19 809.39 16.5 813.23 14 817.89 19 816.89 25 813.23 27.5 806.89 27 799.39 25.5 794.89 29.5 793.89 31.5 796.89 32 801.89 38.5 808.39 44.5 814.6 50 817.89 48 828.39 46.5 831.89 46 835.39 38 836.39 20.5 835.89 51.24 852.31 56 852.39 56.83 840.56 72 839.22 77.83 841.56 79.83 842.72 83 846.06 85.63 847.86 88 853.89 93.19 857.09 107.83 870.72 113.33 869.06 120.67 867.89 129 860.39 139 858.22 143.5 852.56 150.33 853.72 156.67 841.22 163.33 831.06 179.83 830.06 195 830.06 201.33 833.89 208.5 834.39 215.33 829.72 231.33 828.56 239.83 833.22 260.33 838.22 273.99 844.1 289.32 847.6 315.67 863.89 337 893.56 322.67 879.89 310.67 865.22 293.67 856.89 289.34 854.92 281.01 850.08 259.5 849.72 244.51 848.2 229.17 843.56 220.5 842.89 211.33 847.56 197.33 849.06 184.83 849.56 177.5 851.89 177.5 851.89 178.5 861.37 165.61 872.83 176.33 891.56 174 900.89 176.5 902.89 175 910.89 168.5 925.89 163 925.39 155.5 924.89 149.5 925.89 143.5 927.89 141 931.39 131.5 941.89 141.5 945.89 153 947.39 161 947.89 168.5 954.39 180 958.39 196 959.39 200 957.39 211.5 967.39 222 973.39 230 985.39 238 992.89 246 999.89 253 1016.94 260 1016.94 266 1025.39"/><polygon class="cls-1" points="261.96 1019.71 258.5 1023.39 252.25 1027.14 248.25 1029.89 246.75 1028.14 241.75 1032.39 235.5 1033.89 233.75 1038.89 230.75 1041.39 230.75 1043.64 230.75 1046.89 229.5 1053.14 227 1057.14 228.25 1063.14 227 1071.64 219.75 1078.64 213.75 1078.64 212.25 1082.64 208.5 1082.64 202.5 1085.64 199.75 1088.14 195.5 1090.14 191.75 1093.89 190 1096.64 188.5 1101.14 192.75 1103.89 193.25 1110.64 189.75 1105.89 185.5 1107.89 178.5 1107.89 175.5 1108.64 173.25 1111.89 175.5 1123.14 176.5 1137.89 177 1147.89 176.5 1156.14 182.5 1163.89 199 1175.39 211 1183.64 227.75 1203.64 239.5 1216.89 245.75 1222.89 245.75 1227.89 244.5 1229.89 248.25 1237.64 250.75 1241.64 255 1238.64 258.25 1238.64 261.96 1241.64 269.25 1254.89 271.25 1259.89 274 1265.64 276 1273.39 280.75 1277.89 286 1283.39 287.5 1287.64 293.5 1295.64 298 1300.64 301.25 1309.89 303 1322.89 305.75 1336.39 307.5 1344.39 310.5 1354.14 310.5 1361.64 310.5 1368.89 312.25 1376.14 317.25 1381.89 321 1381.89 325.5 1379.64 332.5 1383.14 338.25 1392.14 343 1393.64 349.25 1398.89 351.75 1404.64 353.75 1402.64 357 1404.64 357 1408.14 360.75 1411.64 362.25 1411.64 367.25 1414.64 376.25 1418.14 378.75 1421.39 382.5 1421.39 386 1418.89 387.75 1418.14 389 1421.39 386.25 1423.14 384.5 1426.64 381.5 1426.64 383 1430.14 390.25 1432.14 396.25 1436.64 401.75 1436.64 405 1437.89 412.25 1439.14 418 1439.14 424.75 1442.89 430.5 1442.89 433.25 1441.39 437.5 1442.89 444.75 1445.89 447.5 1449.39 453.25 1455.89 457 1463.39 460.25 1474.64 460.25 1483.39 463.5 1487.39 468.75 1487.39 474.75 1489.89 479 1489.89 481.75 1485.89 485.25 1485.64 491.5 1489.89 501.5 1489.89 503.75 1487.14 508.25 1486.39 515 1487.64 522.25 1494.39 526.25 1500.89 530 1508.64 533 1516.64 537.25 1523.89 540.25 1527.39 544.5 1527.39 544.5 1522.39 541.5 1516.14 538.5 1508.39 533 1498.39 538.5 1503.14 541 1503.39 543 1506.89 544.5 1510.39 544.5 1513.64 547 1514.39 550 1520.39 556.5 1525.14 562.25 1529.39 568.75 1538.39 572.5 1538.39 579 1545.94 582 1545.94 582 1540.14 578.25 1534.64 582 1528.89 585.75 1521.39 585.75 1518.89 582.5 1516.14 581.25 1510.64 581.5 1505.89 583.75 1510.89 585.75 1513.39 590 1510.89 594.25 1510.14 597.75 1509.89 599.5 1508.14 599.5 1502.89 602.25 1508.14 607.25 1511.89 610.75 1516.14 614.25 1517.89 616.75 1513.89 619.75 1508.89 621.75 1508.39 621.75 1514.39 628.75 1512.64 630.5 1515.89 632.5 1515.64 635 1513.14 638.75 1513.64 641.25 1510.39 639.25 1508.14 642.75 1507.39 651.5 1493.14 651.5 1497.14 654.25 1496.39 660.5 1492.39 664 1493.39 667 1490.14 670.5 1490.14 670.5 1492.89 673.25 1491.64 675.75 1491.14 681 1493.14 688 1491.14 690 1486.89 693 1484.39 696.75 1486.89 699.75 1486.89 699.75 1483.14 702.25 1482.89 704.5 1485.14 707.75 1481.14 709.5 1481.14 705.25 1487.89 700.5 1502.64 697.25 1505.89 694 1508.39 692.75 1510.14 693.25 1513.64 697.25 1514.64 699.75 1515.89 702.75 1520.64 707.25 1521.14 705.5 1516.39 709.5 1518.64 712 1516.89 716.5 1518.89 723 1517.89 723 1513.14 727 1511.64 729.25 1514.89 731.75 1514.89 735.25 1511.14 737.75 1510.89 736 1515.89 741.5 1518.14 745.75 1513.14 742.75 1504.39 747.75 1503.14 753.5 1502.64 758.5 1504.64 762.25 1512.39 768.75 1513.89 773.25 1519.89 779.75 1520.39 784.25 1524.89 786.25 1530.64 789.25 1531.39 791.75 1528.64 795 1528.39 797 1531.14 802.5 1530.89 806.25 1527.89 804.5 1524.64 806.25 1522.39 813.25 1519.14 815.5 1516.39 823.75 1519.14 831.5 1523.14 838.5 1521.64 842.25 1518.14 842.25 1514.14 842.25 1511.64 844.25 1508.89 846 1511.14 852 1508.89 855.5 1505.39 855.5 1503.14 859.75 1503.64 859.75 1501.89 859.75 1500.14 861.5 1496.14 871.75 1498.89 878.5 1495.64 889.25 1479.14 885.5 1474.14 876.25 1473.14 875.25 1467.39 869.75 1466.64 862.75 1459.64 857.25 1459.39 852.5 1471.14 848.75 1469.14 849.5 1463.89 846.5 1460.64 846.5 1454.39 847.5 1448.64 849.25 1445.39 852.25 1445.64 856.25 1440.64 854.25 1433.64 849 1423.64 850 1417.89 853.25 1412.39 851.75 1403.14 846.25 1396.64 846 1394.39 847.25 1392.14 847.5 1388.89 846.25 1387.14 857.5 1382.14 857.5 1385.39 859.5 1383.64 861.75 1385.64 865.75 1375.14 864 1367.14 864 1363.64 863 1361.39 860 1361.89 856.75 1356.14 856.75 1352.89 858.25 1352.14 862 1347.14 861.25 1343.14 859 1341.89 861.25 1340.14 861.5 1336.64 858 1334.64 857.75 1330.64 862 1323.14 862 1319.89 858 1316.64 858.25 1313.14 852.5 1308.64 844.5 1310.39 844 1305.89 848 1302.89 849 1294.56 852 1292.56 853 1289.89 850 1288.56 841 1278.89 837 1276.22 847 1260.56 844.67 1254.56 841 1254.22 841 1250.89 833.67 1245.56 829.67 1242.89 826.67 1242.56 826.67 1240.89 828.67 1238.22 829.33 1231.56 825 1232.56 820.67 1230.89 820 1228.56 819.33 1224.56 816 1221.56 815.33 1212.22 820 1208.89 821.67 1204.22 824.67 1197.56 829.33 1194.89 830.33 1192.56 827 1189.22 827 1186.22 822.17 1185.89 814 1184.56 812.5 1180.72 804.67 1178.39 802.5 1177.06 798.83 1174.72 797 1171.72 795 1170.39 792.33 1170.06 791.33 1163.89 788.67 1159.06 783.33 1154.72 780.83 1152.06 779.17 1146.22 771.67 1140.56 771.33 1138.65 774.64 1138.06 774.64 1131.72 777.17 1130.56 778.83 1127.56 777.83 1124.22 782.17 1119.06 776.17 1117.72 773.17 1111.72 773.67 1106.89 766.33 1104.56 762.17 1106.39 760 1105.22 762.67 1101.39 761.67 1099.06 752.33 1099.06 750.83 1096.39 751.83 1094.72 754.17 1095.89 757 1096.06 756.83 1088.56 753.67 1090.72 749.5 1089.22 751 1084.72 749.67 1081.39 747.5 1075.22 742.33 1071.89 737 1070.72 738.33 1069.22 737.67 1067.06 733.67 1067.89 731.83 1066.56 733.33 1063.72 730 1063.56 728.83 1065.06 727 1064.06 725 1064.22 724.5 1068.89 723.5 1068.89 722.83 1066.56 717.5 1068.39 714.83 1068.39 715.83 1064.39 713.5 1058.56 713.33 1054.72 710 1052.72 709.33 1058.22 706.83 1058.72 700.67 1052.89 698.5 1052.56 694.17 1059.72 694.83 1064.22 693.33 1064.89 691 1062.22 684.5 1063.72 682.83 1062.22 681.5 1061.22 679 1063.39 677.67 1060.72 675.83 1062.06 671.67 1062.06 671.5 1059.22 669 1056.39 666.67 1056.72 665.33 1060.06 663 1058.56 662.83 1056.06 659.33 1055.72 658.67 1054.39 655.83 1052.72 653 1055.39 650.17 1052.39 636.33 1048.39 634 1044.89 630.67 1044.22 630.5 1042.06 629.5 1040.89 626.5 1040.89 615 1037.89 610 1032.39 603.5 1026.89 596 1016.94 593.5 1016.94 583.5 1007.39 578.5 1005.89 578.5 1009.39 574 1009.39 570 1016.94 574 1019.89 571 1025.39 567.5 1025.39 567.5 1035.39 563 1036.89 558 1037.39 553 1034.89 548 1029.89 545.5 1029.89 548 1033.39 542.5 1034.39 542.5 1032.39 538 1031.39 538 1033.89 534.5 1035.89 531.5 1038.39 534 1044.89 538 1051.89 538 1057.39 531.25 1061.44 530.5 1061.89 535.5 1069.89 538 1070.89 538 1077.89 533.5 1076.39 533.5 1082.94 529 1087.89 525 1087.89 518 1091.89 511 1091.89 507 1092.89 504 1096.39 497.5 1097.89 494.5 1100.39 491 1098.39 487 1100.39 482.92 1095.39 486 1090.89 488.5 1086.39 491 1082.94 482.92 1074.89 482.92 1066.89 485.5 1060.39 491 1059.89 491 1057.89 487 1049.39 487 1031.89 477 1025.39 469.5 1028.89 466 1035.39 461.5 1034.39 458 1034.39 457.5 1039.39 451 1041.39 453 1045.89 455 1048.39 455 1052.39 450.5 1061.89 449.5 1065.89 450.5 1070.39 452.5 1075.89 452 1078.89 453.5 1082.94 457 1086.39 459.5 1088.89 462 1092.89 459.5 1094.89 456 1099.39 450 1098.39 450.5 1103.39 455 1104.89 452.5 1106.89 455 1108.89 455 1111.89 460 1115.39 462.5 1115.39 466 1120.89 466 1128.39 459 1131.39 454 1132.39 447 1131.89 447 1135.89 444.5 1141.39 439.02 1138.65 431.5 1133.39 418.5 1133.39 414 1130.39 411.5 1130.39 404.5 1127.39 399 1126.89 394.5 1130.39 391 1124.89 385 1119.89 375 1119.89 371.2 1122.39 363 1117.89 363 1103.39 360.5 1103.39 360.5 1097.39 357.5 1092.39 340 1092.39 333 1088.89 322 1088.89 325.5 1085.39 325.5 1077.89 322.5 1073.89 316 1073.89 309.5 1071.39 301 1071.39 291.5 1066.39 284 1059.89 286.5 1055.39 286.5 1045.89 277.5 1045.89 273.5 1040.89 269.5 1031.39 266 1025.39 261.96 1019.71"/><polygon class="cls-1" points="753.75 1078.89 764.5 1071.14 764.5 1073.89 769.5 1076.39 774.64 1073.39 774.64 1075.02 778.75 1075.02 781 1071.14 787.75 1071.14 787.75 1076.14 790.25 1077.64 791.75 1075.02 791.75 1071.14 796.25 1071.14 801.5 1065.14 808.5 1065.14 808.5 1070.64 812.25 1073.39 821 1075.14 821 1070.14 825.25 1072.02 832 1080.39 834.75 1080.39 837.75 1077.14 841.5 1074.89 849.75 1080.39 851 1078.89 851 1075.14 854.75 1070.89 857.75 1072.77 859.5 1074.14 863.5 1072.77 864.75 1074.64 868 1078.39 870.5 1076.14 885.75 1076.39 889.25 1074.39 892.75 1070.39 896.5 1069.64 899 1063.39 906.5 1060.64 910 1055.39 916 1055.39 920.25 1050.89 917 1048.64 914 1046.39 912.75 1043.89 912.5 1038.14 914.25 1036.39 912.25 1032.64 940.5 1019.89 943.5 1019.89 958 1021.14 955 1025.39 945.75 1031.39 946 1039.14 948.75 1040.39 954.75 1033.64 960.5 1032.39 965.5 1032.14 970.5 1028.64 974.5 1028.89 977.25 1028.14 980.75 1031.39 982.5 1031.89 988.75 1019.89 988.75 1015.39 991.75 1015.39 993.75 1016.94 996 1016.94 1000.25 1016.94 1005.25 1015.39 1009.75 1016.94 1012.75 1016.94 1012.75 1019.89 1028.04 1015.39 1028.04 1012.64 1038.5 1009.39 1041.5 1011.39 1045.75 1010.64 1045.75 1008.39 1050.5 1008.39 1050.5 1013.14 1056.25 1008.39 1061.75 1008.39 1065 1011.89 1069.5 1011.89 1074.25 1018.64 1077.25 1016.94 1083 1014.89 1083 1009.64 1086.75 1008.39 1093.75 1012.89 1103.25 1011.64 1104.25 1016.94 1096.5 1022.64 1085.25 1032.89 1091.75 1038.14 1095.25 1035.89 1099.25 1036.64 1102.75 1038.39 1104.25 1041.89 1104.25 1044.39 1109.5 1046.39 1112.75 1044.39 1120 1041.14 1120 1034.64 1118.5 1026.14 1120 1018.64 1126.25 1010.89 1135.25 1010.64 1135.25 1014.64 1147.25 1015.14 1150.5 1021.14 1155.75 1008.39 1153.5 1004.14 1154 997.89 1152.5 993.14 1154.25 989.64 1159.25 984.14 1163.25 974.89 1179.5 963.14 1188.5 972.14 1193.5 969.39 1196.75 971.89 1198.5 971.89 1202.5 963.14 1202.5 956.89 1198.25 952.14 1204.5 938.14 1204.5 922.89 1204.5 920.14 1204.5 918.14 1207.75 918.14 1207.75 913.14 1207.75 911.39 1207.75 909.64 1207.75 907.39 1211.5 906.14 1211.5 900.89 1215 896.89 1215 893.89 1211.75 893.89 1209.75 893.89 1211.75 888.64 1219.25 877.39 1225.25 871.64 1229 860.64 1233.75 858.89 1238.5 855.89 1241.25 849.64 1241.25 845.89 1239.5 840.89 1238.25 839.39 1241.25 839.39 1243 839.39 1259.75 824.39 1257.75 822.39 1255.75 820.14 1254.5 820.14 1252.5 821.89 1251 822.39 1250.75 817.89 1252 815.64 1251.5 813.39 1249.75 813.39 1248 811.64 1250 809.14 1256 803.39 1262 795.14 1262 786.89 1260.25 778.89 1262 769.64 1266.25 764.14 1270 764.14 1270 760.39 1270 758.89 1268.75 753.64 1273.5 750.14 1273.5 746.64 1280.75 741.39 1280.75 733.64 1283.79 724.14 1282.25 721.89 1280.5 721.89 1278.5 721.89 1276.5 725.39 1271.75 721.89 1271.75 717.39 1268.25 714.89 1270 710.89 1273.25 709.39 1272.75 706.39 1278 702.89 1280.75 696.14 1283.79 691.64 1286.5 691.64 1286.5 689.14 1286.5 686.64 1286.5 684.89 1288 682.64 1285.5 679.14 1286.75 674.64 1285.25 667.64 1282.75 667.64 1279.25 667.64 1278.5 669.89 1278.5 673.14 1277.75 676.64 1276 672.89 1275.25 670.39 1275.25 667.64 1271.25 665.39 1268.75 665.39 1267.25 679.89 1260.25 682.64 1257 681.39 1254 684.39 1252.5 684.89 1252 688.64 1248.5 690.64 1246.75 687.39 1247 684.64 1243 682.14 1242 679.89 1240.5 679.39 1239.25 683.89 1237.25 680.89 1237.25 676.14 1235.25 673.64 1232.25 671.64 1226.5 672.64 1223 675.39 1219 672.64 1213.75 671.39 1211 674.64 1209.25 674.14 1202.5 668.39 1199.75 662.64 1192.5 662.64 1192.75 660.14 1189.25 660.14 1189.25 656.89 1187 656.89 1188.75 651.39 1179 643.14 1173.25 649.14 1169.75 641.64 1167 641.64 1161.75 641.64 1156.25 641.64 1150.25 635.64 1149.75 632.89 1147 632.89 1146 636.39 1143 634.89 1140.75 640.14 1138.75 640.39 1139.5 630.64 1137.25 630.64 1135.5 629.39 1130.75 635.64 1129.25 637.14 1129.25 641.39 1129.25 645.39 1128 649.39 1124.5 645.89 1121 647.64 1118.25 649.89 1116.25 649.39 1112.25 647.39 1109 642.89 1093.5 640.64 1090.25 636.89 1092.25 633.14 1091.75 631.14 1087.75 624.89 1087.25 621.64 1085.5 617.14 1082.5 615.14 1082.5 612.64 1081.5 612.64 1082.25 608.14 1088.5 609.64 1099 600.64 1099 594.64 1103.25 592.64 1102.75 590.14 1099.25 591.64 1095.75 587.64 1095.25 584.89 1087 584.89 1085 589.64 1083 589.89 1080.5 593.14 1078 594.39 1075 599.14 1068.5 594.64 1067 596 1062.75 592.14 1060.25 593.89 1059.25 591.64 1056 592.39 1055 590.14 1052 587.39 1046.25 588.89 1043.25 589.89 1029.25 584.89 1025.25 587.14 1020.88 587.14 1020.88 589.64 1016.25 587.89 1016.75 584.89 1019.75 581.64 1020.88 576.64 1018 574.39 1015 574.39 1012 567.64 1009 566.39 1008 564.64 1009.5 563.39 1011 559.39 1007.25 557.89 1007.75 556.14 1007.75 552.89 1002.25 550.14 993.25 541.89 993 550.89 989.75 550.89 985.5 549.89 984.5 553.39 981 555.39 974 559.64 971.25 556.39 970.75 552.39 965 550.39 963 544.39 959 544.89 957 541.89 949.75 536.64 943.25 538.14 941.75 539.64 944.25 544.89 944.25 550.39 939.75 557.89 937 561.39 933 560.64 931.75 558.89 929 560.39 924.25 557.14 917.5 555.89 915.25 559.64 911.25 554.39 905.75 561.39 898.25 567.89 889.5 566.89 887.75 569.14 884 567.14 880.5 569.39 872 563.64 859.75 564.89 858 561.89 853 559.89 851.25 562.14 844.75 561.39 842.25 563.14 839.5 565.89 836.5 565.64 831.5 563.14 831.5 558.14 828.5 556.14 821.5 555.89 819.5 556.39 818 553.14 818.75 550.64 811.5 544.89 806.75 548.89 805.25 547.89 804 541.39 796 540.89 793.75 547.39 794.25 553.89 774.64 544.64 769.5 545.64 768 538.14 763.25 533.64 757.5 533.64 753.75 523.89 749.5 528.89 746.75 528.39 744.25 523.89 738.5 523.89 735 525.64 732.5 529.39 735 533.89 739.5 535.39 741.5 542.64 732.5 542.14 728.75 545.14 720.25 544.14 717 541.39 712.75 541.39 710 539.14 710 535.64 705.5 534.89 705.5 538.64 698 537.89 688.5 537.39 680.25 529.64 669.75 530.39 661.25 526.14 655.25 527.89 657.25 533.64 647.75 530.14 641.25 529.64 641.25 525.64 634.25 523.89 631.75 518.64 627.25 516.89 622.75 511.39 618 511.39 614.75 505.64 609.75 507.39 609.75 514.64 611.5 517.39 609.75 519.89 609.75 523.39 606 531.89 608 540.89 612 544.89 608 552.39 602 556.39 604 564.89 607.5 562.39 615 569.94 621 571.89 629.5 569.39 627.5 580.39 633.5 583.39 633.5 587.39 637 587.39 635.5 611.89 638 611.89 638 614.39 643.5 614.39 643.5 623.39 644.5 631.39 649.5 635.89 655 641.89 664 641.89 667 641.89 671 641.89 675 646.89 686.5 655.89 697.5 655.89 702 659.39 707 662.39 705 665.89 701 669.89 696.5 675.89 690.5 676.89 689 680.39 683.5 681.39 675.5 677.39 670.5 677.39 662.5 679.39 652.5 675.39 640.5 675.39 632 672.39 627 692.89 634 690.39 639.5 692.89 639 696.39 633 701.39 632.5 704.39 635 709.89 639.5 714.89 643.5 720.89 652.5 720.89 659.5 723.39 668 720.89 689 720.89 696.5 724.39 700.5 730.39 706 733.39 724 733.39 725 741.89 722.5 747.89 722.5 752.89 726.5 756.89 729.5 760.39 730 765.89 728.5 770.39 728.5 776.19 730 780.89 732 786.39 735 791.39 741.5 791.39 741.5 798.39 735 806.39 730.5 806.39 721.88 814.6 720 816.39 707.5 815.89 699.5 819.89 677.5 817.89 661 813.23 655.5 817.39 624.5 817.39 618 822.39 612 825.39 604.5 827.89 598.5 827.89 591.5 827.89 583 833.39 566.5 833.39 561.5 837.39 558.5 842.39 555 845.89 548 848.89 553.5 856.39 559 856.39 564 858.89 567 856.39 569 859.89 572.5 863.39 576 868.39 576.5 879.39 580.5 890.89 584 890.89 584.5 894.89 588 897.39 590.5 894.89 591 899.89 599 902.39 600 899.39 604 894.89 611.5 894.89 617.5 900.89 617.5 904.89 616 908.89 615.5 915.39 618.25 918.89 620.5 918.89 620.5 922.39 619 927.39 621 927.39 621.5 930.39 619.5 933.39 623.5 936.89 626.5 939.89 622 947.89 617.5 952.89 614 955.89 610 959.89 604 966.39 600 966.39 596.5 966.39 592 969.39 592.5 971.89 595 975.39 595.5 980.39 597.5 980.39 594.5 984.89 588 991.89 586 994.39 599 994.39 600 997.39 608.5 997.39 617.5 997.39 625 1004.89 623.5 1008.39 628.5 1013.89 634 1016.94 639 1016.94 645 1019.89 649 1022.89 643.5 1026.89 643.5 1036.89 629.5 1040.89 630.5 1042.06 630.67 1044.22 634 1044.89 636.33 1048.39 650.17 1052.39 653 1055.39 655.83 1052.72 658.67 1054.39 659.33 1055.72 662.83 1056.06 663 1058.56 665.33 1060.06 666.67 1056.72 669 1056.39 671.5 1059.22 671.67 1062.06 675.83 1062.06 677.67 1060.72 679 1063.39 681.5 1061.22 684.5 1063.72 691 1062.22 693.33 1064.89 694.83 1064.22 694.17 1059.72 698.5 1052.56 700.67 1052.89 706.83 1058.72 709.33 1058.22 710 1052.72 713.33 1054.72 713.5 1058.56 715.83 1064.39 714.83 1068.39 717.5 1068.39 722.83 1066.56 723.5 1068.89 724.5 1068.89 725 1064.22 727 1064.06 728.83 1065.06 730 1063.56 733.33 1063.72 731.83 1066.56 733.67 1067.89 737.67 1067.06 738.33 1069.22 737 1070.72 741.5 1071.71 747.5 1075.22 750.29 1082.94 753.75 1078.89"/><path class="cls-1" d="M1049.25,418.89l10,4.75-2.5,4h-3l-7.5,6.5-5,4.25h-7.75l-2,3-6.75-1.5-5.25,3.25-5.5-1.75-6.75,1.25-3.75,7.5-2.5,1-.25-4.75-3,3.5v7.25l2.5,2.25v2.5l-2.5,3.5h7.75l2,4.5h4.25l4.25,6-2,4,2,3-4.5,1.25v2l4.5,2.5-4,1.25v2.5l-1.5.75-5.5-4.5-3.25,1.25h-7.5l2.5,3.5.75,3-5.5,2-2.5-2h-4v5l-6,4.25H981l1.25,5.75v5l2.25,2v3l4.75,2.75,7,1.75H1004l3,2v3.75l1,2.25-1,7,2,6-1.25,6-5.5-2.75-9-8.25-.25,9h-3.25l-4.25-1-1,3.5L974,559.64l-2.75-3.25-.5-4-5.75-2-1.17-3.5-.83-2.5-4,.5-2-3-7.25-5.25-6.5,1.5-1.5,1.5,2.5,5.25v5.5l-7.25,11-4-.75-1.25-1.75-2.75,1.5-4.75-3.25-6.75-1.25-2.25,3.75-4-5.25-5.5,7-7.5,6.5-8.75-1-1.75,2.25-3.75-2-3.5,2.25-8.5-5.75-12.25,1.25-1.75-3-5-2-1.75,2.25-6.5-.75-5.25,4.5-3-.25-5-2.5v-5l-3-2-9,.25-1.5-3.25.75-2.5-7.25-5.75-4.75,4-1.5-1-1.25-6.5-8-.5-2.25,6.5.5,6.5-19.61-9.25-5.14,1-1.5-7.5-4.75-4.5H757.5l-3.75-9.75-4.25,5-2.75-.5-2.5-4.5H738.5l-3.5,1.75-2.5,3.75,2.5,4.5,4.5,1.5,2,7.25-9-.5-3.75,3-8.5-1L717,541.39h-4.25L710,539.14v-3.5l-4.5-.75v3.75l-7.5-.75-9.5-.5-8.25-7.75-10.5.75-8.5-4.25-6,1.75,2,5.75-9.5-3.5-6.5-.5v-4l-7-1.75-2.5-5.25-4.5-1.75-4.5-5.5H618l-3.25-5.75,3-3.25v-6.25l3.25-.25,2.25,1.75h1.25l-1.25-3,1.5-5.75,2.75-5.5.5-3.5-3.25-4.25,3.5-3.25h4.5l5.25-4.25,2.25-3.25-2-5.75-1.5-5.5,1.25-2.5h3l4.25-1.75v-3.25l1.25-2v-6.25l3-3.5v-3.25l1.5-4.25,3-5.5,1.75-2.25L654,414.39v-5.25l1.25-3.25,2.25-1.25v-4l8.25-.75H667l1.25-2.25,2,.25,1.25-3.25v-6.5l12.75-2.5,1.25,2.75,4.5-1.5,8,2.75,8-.5,7.75-6.5L713,361.39l1.25-3.5,1.25-7.5-2.25-5.25,2.25-4.5-1-7.25-2.25-4-1.25-7-2.75-5.25,2.25-6.5-3.25-7.5-1.5-11-.75-20.5h-3.25l-.5-4.25-3-5-.25-10.5,2.5-3.25,1.75-4-2.75-3.5-1.5-5.25,2-4.75-3.75-10.25-.5-7.75-2.5-1-1.25-4.5-2-8.75,3-5.25,2.5-1,4-13.5,7-8,4.5-4.75,4.25-8.5-.5-7.25-3.25-7,2.75-12.5h-6l1-5.5,2.25-1.75,1.25-3.75,2.25-.5-4-11.75-4-6.5-3.5-7.25,1.25-3.25v-12l1.75-4,7.25-7.25-.75-11-2.5-1-2.25-6.75V45.14l3.25-1.25-3.5-2.5,1-3.5-2.5-2v-3l1.75-1,2.25-.25,1.25-2.5-1.25-2.75h3.25V24.14l4.75.25v1.75l3,3.75,5,1.75,1.75,3.75,4,.25,2.25,1.25v3.75h3.75l2.5,1.25,1.75-1.75H749l4-.25,2-5.5,4-2V27.64l4-4.25,4.75,4,6-.5,4,4.75v3.5l3,3.25,4,.5,5,1.25v2l5.5-3.75,2.75,2,5-1.5,2.5-2.25,4.5,2.5,2.75-.25v2l4,3.5v4.25l1.75.75v2.75l2.5.25v2l3.75,1.25v8l1.25,4.5,6-2.25V62.14l3.25-2.25,2.25,3.25,5.25.25-2.5,12.25,6,4.25,2.25,3.25,5.75-3.25,2.25-2.25,6.25-.75,4.5,1.5,4-2-1.5-3.08L859,63.39l5.25-5.25,3.25-.25,5,3.5,2-3.75,5.25,2.75-2.25,3.75,1.5,1.25,4-3.25,3.25-1-1.5-3.25V55.14l3.75-1,1.5-3.25,3.5,1.75,2.5-1.5,3.25,7.5,1.25,2.25-1.25,3.25v3.25l2.5,4-2.5,9.5,9.5-6,3.5-1.58L926.5,60.89,938,65.14v-4l4.25-1.25v2.5l3.5-.5,1.75-3.25v-3l3.75-.5L957,45.89l4.75,1,1.75-5,6-4.25,3.75,5.75,2-1.25,2.25-.5,3.25.25,1.5-2.25,2-4.5L995,34.39l2.75,2H1004v4.5l3-1.25,2.25,2,3.5-2h7.5v8.25l10.75,5v2.25l3.25,2,2-2.25-1.5-4,.5-3.75,3.5-2,4.25.5,2.25-2.25-1.75-4,8.75-7.25,5.25,2.5,6.25,1,2-1.75,2.5.5-1.5,7.5,5.5,1,3.75-5.5-3.5-3.75,4-.75,3-5.25h3l4.75-4-.5-5h-3l-5.25-3.5,1-2.75,5.25-1.25,2.5-2.75-1.25-5,3.75-2.08,3.5,4.83,3.75,1.5,2.25,2.25.75-3.75h3.5l1.75,2.75,6.25,3.75v4.75h3.5v3h4l5.75,7.75h2.5l2,2.25-.25,3.25-2.25,2.75-4.25,2-4.25,4.5.25,5.25h3l4.25,4-.75,5.75,3.25,13.5-2,4.75,2.5,5.5,5.5,4.25,13.25,2.75,2.5-1.75,10.75-1.5,1.5-3.75,8.25,3.75,1.51,5.5-4.26,3.75,1.25,4.25-2.25,2.75,3.5,5-1.25,2.25,1.25,3.5-2.75,10.5,2.75,5.5-5.21,8.37-2-2.12-5.5,6.25-5.25-3.75h-6.75l-6.75,6h-7v12l5.25,3.5v2h-3l-4.25-2-2.75-1.75-5,2.5,1,3.5h-1l-1.75,6.75,2.5,7.5,5.75,7,1.25,7.25-2.5,6-2.75,4-.5,8.5-5.25,6.75,1.5,3-1.75,1.25.75,8.75,2.5,4.25,1,3,3,2.25v2.5l-1.25,4.5v13.25l-4.25,1.75-10.5,8.5H1104l-13.25,6-2.49,2.75H1084l-4,7.23h-1.5l-1.25,2.52,4.75,2.25-.5,4-3.75,1.75-2.5,2.25-.25,2.25h6.5l-.25,2.75-1.25,3,1.25,1.5,5.75,1.75,1,4.5,5.5,2.75-.25,2.5s-5.25,3.25-5,3-6,4-6,4l-3.75,5.5,1.5,4.75,5.5,2,2.75,3-3.25,4.25v7.5l-1.5.75-3-2.5-8.75-.25-7.25-2.75-5.25,4.5,1.5,4L1049,360.89l-4.25,2-6-2-4,2.5,2,6.75-1.25,7.25-4.5,7.21,4.5,4.54,9.5,3v10.75l2.5,1.5v3.5h1.5l1.38,3.25,1.37,2.75-2.75,3.25,2.75-3.25-2.75-6h-1.5v-3.5l-2.5-1.5V392.14l-9.5-3-4.5-4.54,4.5-7.21,1.25-7.25-2-6.75,4-2.5,6,2,4.25-2,11.75-3.75-1.5-4,5.25-4.5,7.25,2.75,8.75.25,3,2.5,1.5-.75v-7.5l3.25-4.25-2.75-3-5.5-2-1.5-4.75,3.75-5.5,11-7,.25-2.5-5.5-2.75-1-4.5-5.75-1.75-1.25-1.5,1.5-5.75H1075l.25-2.25,2.5-2.25,3.75-1.75.5-4-4.75-2.25,1.25-2.52h1.5l4-7.23h4.26l2.49-2.75,13.25-6h5.75l10.5-8.5,4.25-1.75V246.14l1.25-4.5v-2.5l-3-2.25-1-3-2.5-4.25-.75-8.75,1.75-1.25-1.5-3,5.25-6.75.5-8.5,2.75-4,2.5-6-1.25-7.25-5.75-7-2.5-7.5,1.75-6.75h1l-1-3.5,5-2.5,7,3.75h3v-2l-5.25-3.5v-12h7l6.75-6h6.75l5.25,3.75,5.5-6.25,2,2.12,8.46,3.63,1.5-4,4.75-2.5,5.75-1.25,1.25-4.5,2.25.75,3.25-3,4.75-.25,2.75,2.75v5.75l3-1.75v3.75l3.75,3,4-.25h9.5l5.5,1,1-1.5-2.5-5.5-4-3,4.25-2,7.75-10.5v2.25l13.75-3v-5.25l2-2v-4.25l5.75-5,2.5,1.75,3.5-.75,1.75-1.75,4,.5,2.5.5,2-5-3.25-2.75-1.25-5.25,4.25-2.5,1.25,4.75,5.25,1.5,1.75-1-1.75-4V83.39l2.25-1.5,5.54.5,4.21,1.25,5.5-6,2,.75,2.25-1,6.25,1.25,6.25-3.25,6.25.75,3.75-2.83,3.25,1.08,5-1.08h6.75l1.25,4.58,2.75-2.25-.25,3.25h7.5l3.25,3.75,3.25,1.5-.25,3h4.75l6.25,6,.5,7.25,2.75,3.25.25,3.75,3.5,3.5.75,9h-3.75l-1.25,1.5,1.25,3,.25,8.75,2.25,1.75-1.5,3.25,3.5,23.25,2,2-.5,3.25-4.5,4.25.75,7.25,7,5.75h1.75l1.75,4.25,3-.5,1.25-3.75h3.5l3,5.25.5,6,2.5.25,3.25,1.75,3.5-1.5,3.25,1.75,2.25-1.25,6.25,4,4-7h3.75l.5,3,2.25,3.25,4.5,4.5v2.25h-4.25l-3.5,4.25,6.75,11.25,6.75,1.75,5,7,1.5,7,3.5-2,7.75,3.5,2.75-.5,6,.75,10.25-.25,7.5-1.25,1.25,3.5-1,4.75,2.25-.75,2.75,2.25-2-9.75-.5-5.25,6.5-6.25h5.25l6.75,6h4.25l1.5,5,.75,6.75h3.25l.75,4.75h1.25l.5,3.5,1.5,1.25,1,6,3.5,1.5,1.75,4.5,3,7.75h2.75l2,3.75,1.75,4h1.25l8,4,13.25-8,11.75,6,1.75-1.25-.25,4,6.75,3.5,3.75,6.5,6.75-.25,4.25-2,3.75,5,3.5-2,15.25,7.75,1.25,10-7.75,4.5-8.25-2h-8.25v12l-5,1.75-10.75,3.25-2.25,2.5h-9v2.75l8,3.5,2-1,1.5-1.25,3.25-1.25,1.75,3.75-1.5,4.25-2.5,7.25-6.5,3.25-8.25-1.75h-5.5l-1.75,2,3.25,4.25-3.75,12,3,5.75h5.25l.25,2.5,8.5,2.46,2.25-2.46,2.5,2.46v3.79l1,4-3,2.5-2,13-6.75,5.5,5,11.5h2.5l3.25,7.75,1.25,10h2v3.75h-3l-5,5h-8l-1.5,9.5-.5,4.25-1.5,3,8.5,6.5-3.75,2,3.75,3-2.75,2.25-8-5-3-5-6.75,1.25v2.5l-4.5.75-2.5,6.25-1,2.5,3.25,3,1.25,11.75-1.5,4.25,5,5.75v5l-3.75,7.5-3.5-2-7.75,10.25-8.5,16.25-19.75,7.25.75,4.25,4.5,6.5-7.25.75-6.75-2-16,10-7.5,1.5.25,10.75,2,5.25-1.75,10.75,1.75,10.5-4.5,2.75-2.25,7.25h-4.5v2.5l-8.25,5.25-1.25-2.25-2,1.25-4.75.5-5-1.75-2.25,7.5-5.5,1.25-2.75-1.25-3.75,2.75h-6l-7,6-7.25.5-5.5-1.75v1.25h-1.75l-1.75-1.25-3.75,6.5-1.75.75,1.75,5.25-4.25,6.25-7.25,1.25-3.5,1-1.75-4.5-5.25-3v-6.25l-6.75-7.25h-4.5l-2.75,5.25-3.75,3.5-1.25,3,.25,3.75,1.25,2.75,3,2.75,3.25,2,3.5,10.5,2.25-.25,1.5,3.75-1,1.25-.25,2.5,2.75,4.5-4.5.5-2,3.25-6.75,4-12.25-7.5-3.5-2.25-3.25-3.75-2.5-3.25-5.75-1.5-5.25-1.25h-6l-5-2.75-4-4.5-2.25-4-8.5-1.25H1288l-2.75,3.75h-6l-.75,5.5-.75,3.5-1.75-3.75-.75-2.5v-2.75l-4-2.25h-2.5l-1.5,14.5-7,2.75-3.25-1.25-3,3-1.5.5-.5,3.75-3.5,2-1.75-3.25.25-2.75-4-2.5-1-2.25-1.5-.5-1.25,4.5-2-3v-4.75l-5-4.5-5.75,1-3.5,2.75-4-2.75-5.25-1.25-2.75,3.25-8.5-6.25-2.75-5.75h-7.25l.25-2.5h-3.5v-3.25H1187l1.75-5.5-9.75-8.25-5.75,6-3.5-7.5h-13.5l-6-6-.5-2.75H1147l-1,3.5-3-1.5-2.25,5.25-2,.25.75-9.75h-2.25l-1.75-1.25-4.75,6.25-1.5,1.5v8.25l-1.25,4-3.5-3.5-3.5,1.75-2.75,2.25-6-2.5-3.25-4.5-15.5-2.25-3.25-3.75,2-3.75-.5-2-4-6.25-.5-3.25-1.75-4.5-3-2v-2.5h-1l.75-4.5,6.25,1.5,10.5-9v-6l4.25-2-.5-2.5-3.5,1.5-3.5-4-.5-2.75H1087l-2,4.75-2,.25-2.5,3.25-2.5,1.25-3,4.75-6.5-4.5L1067,596l-4.25-3.86-2.5,1.75-1-2.25-3.25.75-1-2.25-3-2.75-8.75,2.5-14-5-4,2.25h-4.37v2.5l-4.63-1.75.5-3,3-3.25,1.13-5-2.88-2.25h-3l-3-6.75-3-1.25-1-1.75s1,.15,1.5-1.25,1.5-4,1.5-4l-3.75-1.5.5-3.25"/><path class="cls-1" d="M1225.5,139.89h0l1-1.5-2.5-5.5-4-3,4.25-2,7.75-10.5v2.25l13.75-3v-5.25l2-2v-4.25l5.75-5,2.5,1.75,3.5-.75,1.75-1.75,4,.5,2.5.5,2-5-3.25-2.75-1.25-5.25,4.25-2.5,1.25,4.75,5.25,1.5,1.75-1-1.75-4V83.39l2.25-1.5,5.54.5,4.21,1.25,5.5-6,2,.75,2.25-1,6.25,1.25,6.25-3.25,6.25.75,3.75-2.83,3.25,1.08,5-1.08h6.75l1.25,4.58,2.75-2.25-.25,3.25h7.5l3.25,3.75,3.25,1.5-.25,3h4.75l6.25,6,.5,7.25,2.75,3.25.25,3.75,3.5,3.5.75,9h-3.75l-1.25,1.5,1.25,3,.25,8.75,2.25,1.75-1.5,3.25,3.5,23.25,2,2-.5,3.25-4.5,4.25.75,7.25,7,5.75h1.75l1.75,4.25,3-.5,1.25-3.75h3.5l3,5.25.5,6,2.5.25,3.25,1.75,3.5-1.5,3.25,1.75,2.25-1.25,6.25,4,4-7h3.75l.5,3,2.25,3.25,4.5,4.5v2.25h-4.25l-3.5,4.25,6.75,11.25,6.75,1.75,5,7,1.5,7,3.5-2,7.75,3.5,2.75-.5,6,.75,10.25-.25,7.5-1.25,1.25,3.5-1,4.75,2.25-.75,2.75,2.25-2-9.75-.5-5.25,6.5-6.25h5.25l6.75,6h4.25l1.5,5,.75,6.75h3.25l.75,4.75h1.25l.5,3.5,1.5,1.25,1,6,3.5,1.5,1.75,4.5,3,7.75h2.75l2,3.75,1.75,4h1.25l8,4,13.25-8,11.75,6,1.75-1.25-.25,4,6.75,3.5,3.75,6.5,6.75-.25,4.25-2,3.75,5,3.5-2,15.25,7.75,1.25,10-7.75,4.5-8.25-2h-8.25v12l-5,1.75-10.75,3.25-2.25,2.5h-9v2.75l8,3.5,2-1,1.5-1.25,3.25-1.25,1.75,3.75-1.5,4.25-2.5,7.25-6.5,3.25-8.25-1.75h-5.5l-1.75,2,3.25,4.25-3.75,12,3,5.75h5.25l.25,2.5,8.5,2.46,2.25-2.46,2.5,2.46v3.79l1,4-3,2.5-2,13-6.75,5.5,5,11.5h2.5l3.25,7.75,1.25,10h2v3.75h-3l-5,5h-8l-1.5,9.5-.5,4.25-1.5,3,8.5,6.5-3.75,2,3.75,3-2.75,2.25-8-5-3-5-6.75,1.25v2.5l-4.5.75-2.5,6.25-1,2.5,3.25,3,1.25,11.75-1.5,4.25,5,5.75v5l-3.75,7.5-3.5-2-7.75,10.25-8.5,16.25-19.75,7.25.75,4.25,4.5,6.5-7.25.75-6.75-2-16,10-7.5,1.5.25,10.75,2,5.25-1.75,10.75,1.75,10.5-4.5,2.75-2.25,7.25h-4.5v2.5l-8.25,5.25-1.25-2.25-2,1.25-4.75.5-5-1.75-2.25,7.5-5.5,1.25-2.75-1.25-3.75,2.75h-6l-7,6-7.25.5-5.5-1.75v1.25h-1.75l-1.75-1.25-3.75,6.5-1.75.75,1.75,5.25-4.25,6.25-7.25,1.25-3.5,1-1.75-4.5-5.25-3v-6.25l-6.75-7.25h-4.5l-2.75,5.25-3.75,3.5-1.25,3,.25,3.75,1.25,2.75,3,2.75,3.25,2,3.5,10.5,2.25-.25,1.5,3.75-1,1.25-.25,2.5,2.75,4.5-4.5.5-2,3.25-6.75,4-12.25-7.5-3.5-2.25-3.25-3.75-2.5-3.25-5.75-1.5-5.25-1.25h-6l-5-2.75-4-4.5-2.25-4-8.5-1.25H1288l-2.75,3.75h-6l-.75,5.5-.75,3.5-1.75-3.75-.75-2.5v-2.75l-4-2.25h-2.5l-1.5,14.5-7,2.75-3.25-1.25-3,3-1.5.5-.5,3.75-3.5,2-1.75-3.25.25-2.75-4-2.5-1-2.25-1.5-.5-1.25,4.5-2-3v-4.75l-5-4.5-5.75,1-3.5,2.75-4-2.75-5.25-1.25-2.75,3.25-8.5-6.25-2.75-5.75h-7.25l.25-2.5h-3.5v-3.25H1187l1.75-5.5-9.75-8.25-5.75,6-3.5-7.5h-13.5l-6-6-.5-2.75H1147l-1,3.5-3-1.5-2.25,5.25-2,.25.75-9.75h-2.25l-1.75-1.25-4.75,6.25-1.5,1.5v8.25l-1.25,4-3.5-3.5-3.5,1.75-2.75,2.25-6-2.5-3.25-4.5-15.5-2.25-3.25-3.75,2-3.75-.5-2-4-6.25-.5-3.25-1.75-4.5-3-2v-2.5h-1l.75-4.5,6.25,1.5,10.5-9v-6l4.25-2-.5-2.5-3.5,1.5-3.5-4-.5-2.75H1087l-2,4.75-2,.25-2.5,3.25-2.5,1.25-3,4.75-6.5-4.5L1067,596l-4.25-3.86-2.5,1.75-1-2.25-3.25.75-1-2.25-3-2.75-8.75,2.5-14-5-4,2.25h-4.37v2.5l-4.63-1.75.5-3,3-3.25,1.13-5-2.88-2.25h-3l-3-6.75-3-1.25-1-1.75s1,.15,1.5-1.25,1.5-4,1.5-4l-3.75-1.5.5-3.25v-1.75l1.25-6-2-6,1-7-1-2.25v-3.75l-3-2h-5l-9.75-1.75-4.75-2.75v-3l-2.25-2-2.75-10.75,6-4.25v-5h4l2.5,2,5.5-2-.75-3-2.5-3.5h7.5l3.25-1.25,5.5,4.5,1.5-.75v-2.5l4-1.25-4.5-2.5v-2l4.5-1.25-2-3,2-4-4.25-6h-4.25l-2-4.5h-7.75l2.5-3.5v-2.5l-2.5-2.25v-7.25l3-3.5.25,4.75,2.5-1,3.75-7.5,6.75-1.25,5.5,1.75,5.25-3.25,6.75,1.5,2-3h7.75l12.5-10.75h3l2.5-4-11.08-5.75,3.58-4-2.75-6h-1.5v-3.5l-2.5-1.5V392.14l-9.5-3-4.5-4.54,4.5-7.21,1.25-7.25-2-6.75,4-2.5,6,2,4.25-2,10.25-3.27,1.5-.48-1.5-4,5.25-4.5,7.25,2.75,8.75.25,3,2.5,1.5-.75v-7.5l3.25-4.25-2.75-3-5.5-2-1.5-4.75,3.75-5.5,6-4,5-3,.25-2.5-5.5-2.75-1-4.5-5.75-1.75-1.25-1.5,1.5-5.75H1075l.25-2.25,2.5-2.25,3.75-1.75.5-4-4.75-2.25,1.25-2.52h1.5l4-7.23h4.26l2.49-2.75,13.25-6h5.75l10.5-8.5,4.25-1.75V246.14l1.25-4.5v-2.5l-3-2.25-1-3-2.5-4.25-.75-8.75,1.75-1.25-1.5-3,5.25-6.75.5-8.5,2.75-4,2.5-6-1.25-7.25-5.75-7-2.5-7.5,1.75-6.75h1l-1-3.5,5-2.5,7,3.75h3v-2l-5.25-3.5v-12h7l6.75-6h6.75l5.25,3.75,5.5-6.25,2,2.12,8.46,3.63,1.5-4,4.75-2.5,5.75-1.25,1.25-4.5,2.25.75,3.25-3,4.75-.25,2.75,2.75v5.75l3-1.75v3.75l3.75,3,4-.25h9.5Z"/></g></g></svg>