<svg id="Layer_1" data-name="Layer 1" xmlns="http://www.w3.org/2000/svg" xmlns:xlink="http://www.w3.org/1999/xlink" width="426.65" height="170.08" viewBox="0 0 426.65 170.08"><defs><style>.cls-1{fill:none;}.cls-2{clip-path:url(#clip-path);}.cls-3{fill:#1d1d1b;}.cls-4{fill:#169b62;}</style><clipPath id="clip-path" transform="translate(0 0)"><rect class="cls-1" width="428.03" height="170.08"/></clipPath></defs><title>FdS_noir_vert</title><g class="cls-2"><path class="cls-3" d="M0,141.79l16.2-1.57c1,5.43,2.95,9.43,5.93,12s7,3.83,12.06,3.83q8,0,12.12-3.4a10.12,10.12,0,0,0,4.08-8,7.53,7.53,0,0,0-1.71-5,13.77,13.77,0,0,0-6-3.57q-2.92-1-13.33-3.6Q16,129.2,10.57,124.36A21.46,21.46,0,0,1,3,107.77,21.23,21.23,0,0,1,6.55,96a22.37,22.37,0,0,1,10.29-8.35,41.3,41.3,0,0,1,16.23-2.87q15.52,0,23.37,6.81t8.24,18.16L48,110.47q-1.06-6.36-4.59-9.14T32.9,98.54q-7.26,0-11.36,3a6,6,0,0,0-2.64,5.12,6.34,6.34,0,0,0,2.47,5q3.15,2.64,15.3,5.51t18,5.93a23.28,23.28,0,0,1,9.11,8.38,26,26,0,0,1-.65,26.41A23.56,23.56,0,0,1,52,167.07q-7.18,3-17.94,3-15.63,0-24-7.23T0,141.79" transform="translate(0 0)"/><path class="cls-3" d="M133,126.55l-15.58,2.81a11.38,11.38,0,0,0-3.57-7,10.83,10.83,0,0,0-7.23-2.36,11.8,11.8,0,0,0-9.42,4.08q-3.51,4.08-3.52,13.63,0,10.63,3.58,15a11.73,11.73,0,0,0,9.59,4.39,10.63,10.63,0,0,0,7.36-2.56q2.86-2.57,4-8.8l15.52,2.64q-2.41,10.68-9.28,16.14T106.12,170Q93,170,85.23,161.7t-7.79-22.89q0-14.79,7.82-23t21.14-8.24q10.92,0,17.36,4.7T133,126.55" transform="translate(0 0)"/><rect class="cls-3" x="144.87" y="108.89" width="15.8" height="59.73"/><path class="cls-3" d="M211.57,149.61l15.75,2.64a25.84,25.84,0,0,1-9.59,13.19Q211.18,170,201.34,170q-15.59,0-23.06-10.18-5.91-8.16-5.91-20.59,0-14.83,7.76-23.25a25.56,25.56,0,0,1,19.63-8.41q13.34,0,21,8.8t7.36,27H188.57q.17,7,3.82,10.94a12,12,0,0,0,9.12,3.91,9.69,9.69,0,0,0,6.24-2,12.45,12.45,0,0,0,3.82-6.52m.9-16q-.16-6.87-3.54-10.44a11.4,11.4,0,0,0-16.76.2q-3.37,3.76-3.32,10.24Z" transform="translate(0 0)"/><path class="cls-3" d="M295.37,168.62h-15.8V138.14q0-9.67-1-12.52a8.74,8.74,0,0,0-3.29-4.41,9.37,9.37,0,0,0-5.48-1.58,12.68,12.68,0,0,0-7.37,2.25,11.39,11.39,0,0,0-4.47,6q-1.2,3.72-1.21,13.73v27.05h-15.8V108.89h14.68v8.77q7.81-10.11,19.68-10.12a23.61,23.61,0,0,1,9.56,1.89,16,16,0,0,1,6.56,4.8,17.39,17.39,0,0,1,3.09,6.64,49.44,49.44,0,0,1,.87,10.63Z" transform="translate(0 0)"/><path class="cls-3" d="M363.48,126.55l-15.58,2.81a11.38,11.38,0,0,0-3.57-7A10.83,10.83,0,0,0,337.1,120a11.8,11.8,0,0,0-9.42,4.08q-3.51,4.08-3.52,13.63,0,10.63,3.58,15a11.73,11.73,0,0,0,9.58,4.39,10.63,10.63,0,0,0,7.37-2.56q2.87-2.57,4.05-8.8l15.52,2.64q-2.42,10.68-9.28,16.14T336.59,170q-13.09,0-20.89-8.27t-7.79-22.89q0-14.79,7.82-23t21.14-8.24q10.92,0,17.35,4.7t9.26,14.31" transform="translate(0 0)"/><path class="cls-3" d="M410,149.61l15.75,2.64a25.84,25.84,0,0,1-9.59,13.19Q409.65,170,399.81,170q-15.58,0-23.06-10.18-5.91-8.16-5.91-20.59,0-14.83,7.76-23.25a25.56,25.56,0,0,1,19.63-8.41q13.33,0,21,8.8t7.36,27H387q.16,7,3.82,10.94a12,12,0,0,0,9.12,3.91,9.69,9.69,0,0,0,6.24-2,12.45,12.45,0,0,0,3.82-6.52m.9-16q-.17-6.87-3.54-10.44a11.4,11.4,0,0,0-16.76.2q-3.37,3.76-3.32,10.24Z" transform="translate(0 0)"/><path class="cls-3" d="M48.07,24.13h8.77v-4.5c0-5,.54-8.77,1.6-11.25a12.68,12.68,0,0,1,5.91-6.05A22.71,22.71,0,0,1,75.23,0,44,44,0,0,1,88.45,2l-2.14,11a31.19,31.19,0,0,0-7.25-.9q-3.44,0-4.93,1.6t-1.49,6.16v4.22H84.45V36.56H72.64V83.85H56.84V36.56H48.07Z" transform="translate(0 0)"/><path class="cls-3" d="M130.81,64.84l15.74,2.65A25.82,25.82,0,0,1,137,80.68q-6.54,4.51-16.39,4.52Q105,85.2,97.51,75q-5.9-8.14-5.9-20.58,0-14.85,7.76-23.25A25.53,25.53,0,0,1,119,22.78q13.32,0,21,8.8t7.37,27H107.8q.18,7,3.83,10.93a12,12,0,0,0,9.11,3.91,9.68,9.68,0,0,0,6.24-2,12.56,12.56,0,0,0,3.83-6.53M100.49,16.59,112.3,0h14.63l11.64,16.59H125.86l-6.53-8.38-6.07,8.38Zm31.22,32.28q-.18-6.85-3.55-10.43A10.86,10.86,0,0,0,120,34.87a11,11,0,0,0-8.55,3.77q-3.37,3.77-3.31,10.23Z" transform="translate(0 0)"/><path class="cls-3" d="M190.54,24.13v12.6H179.75V60.79a59.35,59.35,0,0,0,.31,8.53,3.43,3.43,0,0,0,1.4,2,4.42,4.42,0,0,0,2.67.79,20.53,20.53,0,0,0,6.36-1.52l1.35,12.26a31.36,31.36,0,0,1-12.49,2.36,19.86,19.86,0,0,1-7.7-1.43,11.27,11.27,0,0,1-5-3.71,14.87,14.87,0,0,1-2.22-6.16,78.13,78.13,0,0,1-.5-11.14v-26h-7.26V24.13h7.26V12.26L179.75,3V24.13Z" transform="translate(0 0)"/><path class="cls-3" d="M239,64.84l15.75,2.65a25.94,25.94,0,0,1-9.59,13.19q-6.55,4.51-16.4,4.52-15.57,0-23.06-10.18-5.9-8.14-5.9-20.58,0-14.85,7.76-23.25a25.55,25.55,0,0,1,19.63-8.41q13.32,0,21,8.8t7.37,27H216q.17,7,3.82,10.93a12,12,0,0,0,9.11,3.91,9.64,9.64,0,0,0,6.24-2A12.49,12.49,0,0,0,239,64.84m.9-16q-.16-6.85-3.55-10.43a11.39,11.39,0,0,0-16.75.2q-3.37,3.77-3.32,10.23Z" transform="translate(0 0)"/><path class="cls-3" d="M311.46,85H303V80a13.82,13.82,0,0,1-5,4.41,12.9,12.9,0,0,1-5.81,1.45A13.14,13.14,0,0,1,281.94,81q-4.26-4.8-4.25-13.4,0-8.79,4.13-13.37a13.48,13.48,0,0,1,10.46-4.57,13,13,0,0,1,10,4.82V37.29h9.15ZM287,67q0,5.55,1.53,8a6.94,6.94,0,0,0,6.19,3.58,6.75,6.75,0,0,0,5.38-2.69q2.21-2.69,2.21-8,0-6-2.15-8.58a7.07,7.07,0,0,0-11,0C287.77,61,287,63.56,287,67" transform="translate(0 0)"/><path class="cls-3" d="M340.51,74l9.12,1.53a15,15,0,0,1-5.56,7.64,16.36,16.36,0,0,1-9.49,2.62q-9,0-13.35-5.9-3.42-4.71-3.42-11.92,0-8.59,4.49-13.46a14.8,14.8,0,0,1,11.37-4.87q7.71,0,12.18,5.1t4.26,15.61H327.19a9.24,9.24,0,0,0,2.21,6.34A6.92,6.92,0,0,0,334.68,79a5.59,5.59,0,0,0,3.61-1.17A7.22,7.22,0,0,0,340.51,74m.52-9.25a8.84,8.84,0,0,0-2-6,6.31,6.31,0,0,0-4.76-2.07,6.38,6.38,0,0,0-5,2.18,8.47,8.47,0,0,0-1.92,5.93Z" transform="translate(0 0)"/><rect class="cls-3" x="376.1" y="37.29" width="9.15" height="47.74"/><path class="cls-3" d="M401.47,61l-8.3-1.5A12.92,12.92,0,0,1,398,52.08q3.42-2.41,10.16-2.41,6.12,0,9.12,1.45a9,9,0,0,1,4.21,3.68c.82,1.49,1.22,4.22,1.22,8.19l-.09,10.68a36.55,36.55,0,0,0,.44,6.73A19.66,19.66,0,0,0,424.69,85h-9.05c-.24-.61-.53-1.51-.88-2.71-.15-.54-.26-.9-.33-1.07a16.44,16.44,0,0,1-5,3.42,14.36,14.36,0,0,1-5.7,1.14q-5.34,0-8.42-2.9a9.65,9.65,0,0,1-3.08-7.33,9.91,9.91,0,0,1,1.4-5.23,9.12,9.12,0,0,1,3.93-3.51,30,30,0,0,1,7.28-2.13,51,51,0,0,0,8.89-2.25v-.91a4.75,4.75,0,0,0-1.31-3.77c-.86-.74-2.5-1.12-4.91-1.12a6.54,6.54,0,0,0-3.81,1A6.69,6.69,0,0,0,401.47,61m12.25,7.43a57.28,57.28,0,0,1-5.57,1.4,16.73,16.73,0,0,0-5,1.59,3.82,3.82,0,0,0-1.8,3.23A4.47,4.47,0,0,0,402.81,78a5,5,0,0,0,3.64,1.4,7.92,7.92,0,0,0,4.73-1.63,5.74,5.74,0,0,0,2.18-3,18,18,0,0,0,.36-4.46Z" transform="translate(0 0)"/><path class="cls-4" d="M140.35,92.68a12.42,12.42,0,1,1,12.42,12.42,12.42,12.42,0,0,1-12.42-12.42" transform="translate(0 0)"/><path class="cls-4" d="M131.71,48.87q-.18-6.85-3.55-10.43A10.86,10.86,0,0,0,120,34.87a11,11,0,0,0-8.55,3.77q-3.37,3.77-3.31,10.23Z" transform="translate(0 0)"/><path class="cls-4" d="M50.39,144.66a7.53,7.53,0,0,0-1.71-5c-1.15-1.37-3.14-2.56-6-3.57-.62-.21-1.5-.48-2.62-.8a14.18,14.18,0,0,0,.43,20,13.82,13.82,0,0,0,5.81-2.72,10.12,10.12,0,0,0,4.08-8" transform="translate(0 0)"/><path class="cls-4" d="M327.74,152.7c.11.14.23.26.35.39a14.19,14.19,0,0,0-1.36-27.73q-2.57,4.15-2.57,12.32,0,10.63,3.58,15" transform="translate(0 0)"/></g></svg>