<svg width="356" height="293" viewBox="0 0 356 293" fill="none" xmlns="http://www.w3.org/2000/svg">
<ellipse cx="116" cy="72.5" rx="240" ry="220.5" fill="#EF4F5F" fill-opacity="0.9"/>
<path d="M30.606 68.5891H35.1719L39.4834 75.9398L43.7949 68.5891H48.3609V86.4429H44.7421V73.7402L40.7613 80.322H38.2168L34.2276 73.7402V86.4429H30.606V68.5891Z" fill="white"/>
<path d="M53.334 68.5891H56.9585V86.4429H53.334V68.5891Z" fill="white"/>
<path d="M61.957 68.5891H66.5993L74.5834 81.3681V68.5891H78.2051V86.4429H73.5628L65.5787 73.613V86.4429H61.957V68.5891Z" fill="white"/>
<path d="M83.2061 68.5891H86.8277V86.4429H83.2061V68.5891Z" fill="white"/>
<path d="M92.8497 81.5462C93.9213 82.9231 95.349 83.7401 96.8078 83.7401C98.2667 83.7401 99.1035 82.974 99.1035 81.6734C99.1035 78.4843 90.9414 79.1996 90.9414 73.2568C90.9414 70.4296 93.2625 68.0773 96.6552 68.0773C99.3325 68.0773 101.399 69.2761 102.903 71.0883L100.251 73.4604C99.2053 72.1089 98.032 71.241 96.6806 71.241C95.431 71.241 94.6139 72.0581 94.6139 73.1013C94.6139 76.2904 102.776 75.5525 102.776 81.5971C102.725 84.9134 100.124 86.9688 96.8587 86.9688C93.8477 86.9688 91.8093 85.8719 90.2261 83.9833L92.8497 81.5462Z" fill="white"/>
<path d="M104.608 68.5891H119.251V71.8771H113.74V86.4429H110.119V71.8771H104.608V68.5891Z" fill="white"/>
<path d="M122.439 68.589H132.846V71.6735H126.061V75.8069H131.82V78.8858H126.061V83.3499H132.846V86.4344H122.439V68.589ZM122.745 63.6188H126.471L129.352 67.0623H126.036L122.745 63.6188Z" fill="white"/>
<path d="M137.056 68.5891H142.516C146.445 68.5891 148.868 70.602 148.868 73.9184C148.868 76.0614 147.822 77.6701 146.01 78.5352L151.622 86.4514H147.285L142.541 79.2251H140.678V86.443H137.056V68.5891ZM140.678 71.6735V76.1377H142.719C144.251 76.1377 145.142 75.3207 145.142 73.876C145.142 72.5245 144.251 71.682 142.719 71.682L140.678 71.6735Z" fill="white"/>
<path d="M153.873 68.5891H164.28V71.6735H157.494V75.8069H163.262V78.8858H157.494V83.35H164.28V86.4345H153.873V68.5891Z" fill="white"/>
<path d="M30.606 94.3365H37.6203C43.2747 94.3365 47.1113 98.4417 47.1113 103.262C47.1113 108.082 43.2832 112.19 37.6203 112.19H30.606V94.3365ZM34.2276 97.6274V108.9H37.674C40.9903 108.9 43.3878 106.426 43.3878 103.262C43.3878 100.098 40.9903 97.6274 37.674 97.6274H34.2276Z" fill="white"/>
<path d="M50.6055 94.3365H61.0125V97.421H54.2271V101.554H59.9918V104.642H54.2271V109.106H61.0125V112.19H50.6055V94.3365Z" fill="white"/>
<path d="M71.855 94.3365H75.4767V108.9H82.262V112.19H71.855V94.3365Z" fill="white"/>
<path d="M81.4956 101.682L83.7913 94.3309H87.4667L84.5066 101.682H81.4956Z" fill="white"/>
<path d="M90.2603 94.3365H100.67V97.421H93.8848V101.554H99.6495V104.642H93.8961V109.106H100.681V112.19H90.2603V94.3365Z" fill="white"/>
<path d="M104.891 94.3365H109.533L117.517 107.116V94.3365H121.139V112.19H116.497L108.513 99.3605V112.19H104.891V94.3365Z" fill="white"/>
<path d="M127.158 107.294C128.23 108.671 129.66 109.488 131.116 109.488C132.572 109.488 133.412 108.721 133.412 107.421C133.412 104.232 125.25 104.947 125.25 99.0043C125.25 96.1771 127.571 93.8248 130.964 93.8248C133.641 93.8248 135.708 95.0236 137.212 96.8358L134.56 99.2079C133.514 97.8564 132.341 96.9885 130.989 96.9885C129.74 96.9885 128.923 97.8056 128.923 98.8516C128.923 102.038 137.085 101.3 137.085 107.333C137.034 110.65 134.433 112.691 131.167 112.691C128.156 112.691 126.118 111.594 124.535 109.705L127.158 107.294Z" fill="white"/>
<path d="M140.884 94.3365H151.291V97.421H144.506V101.554H150.271V104.642H144.506V109.106H151.291V112.19H140.884V94.3365Z" fill="white"/>
<path d="M155.501 94.3365H159.123V112.19H155.501V94.3365Z" fill="white"/>
<path d="M176.49 107.752V104.744H171.967V101.453H180.132V109.055C178.472 111.274 175.693 112.702 172.351 112.702C166.561 112.702 162.606 108.365 162.606 103.262C162.606 98.159 166.459 93.8248 172.097 93.8248C175.334 93.8248 177.989 95.278 179.62 97.4465L176.765 99.6659C176.248 98.9052 175.552 98.2837 174.738 97.8566C173.923 97.4295 173.016 97.21 172.097 97.2175C168.73 97.2175 166.329 99.844 166.329 103.262C166.329 106.68 168.857 109.31 172.351 109.31C173.88 109.341 175.362 108.783 176.49 107.752Z" fill="white"/>
<path d="M184.146 94.3365H188.792L196.776 107.116V94.3365H200.397V112.19H195.755L187.771 99.3605V112.19H184.146V94.3365Z" fill="white"/>
<path d="M205.396 94.3365H215.806V97.421H209.02V101.554H214.785V104.642H209.02V109.106H215.806V112.19H205.396V94.3365Z" fill="white"/>
<path d="M220.03 94.3365H224.582L228.89 101.687L233.202 94.3365H237.768V112.19H234.146V99.4877L230.165 106.07H227.621L223.643 99.4877V112.19H220.03V94.3365Z" fill="white"/>
<path d="M242.744 94.3365H253.151V97.421H246.365V101.554H252.13V104.642H246.365V109.106H253.151V112.19H242.744V94.3365Z" fill="white"/>
<path d="M257.349 94.3365H261.991L269.975 107.116V94.3365H273.597V112.19H268.966L260.982 99.3605V112.19H257.349V94.3365Z" fill="white"/>
<path d="M276.772 94.3365H291.414V97.6274H285.904V112.19H282.282V97.6274H276.772V94.3365Z" fill="white"/>
<path d="M31.6265 133.041C32.698 134.418 34.1258 135.235 35.5846 135.235C37.0434 135.235 37.8803 134.469 37.8803 133.168C37.8803 129.979 29.7153 130.695 29.7153 124.752C29.7153 121.925 32.0364 119.572 35.4291 119.572C38.1093 119.572 40.176 120.771 41.6801 122.583L39.0253 124.969C37.9793 123.618 36.806 122.75 35.4517 122.75C34.2021 122.75 33.3878 123.567 33.3878 124.613C33.3878 127.8 41.55 127.062 41.55 133.095C41.4991 136.411 38.8953 138.453 35.6327 138.453C32.6217 138.453 30.5804 137.356 29 135.467L31.6265 133.041Z" fill="white"/>
<path d="M55.6804 120.084H59.3049V130.949C59.3049 135.642 56.5483 138.45 52.0587 138.45C47.5691 138.45 44.8408 135.642 44.8408 130.949V120.084H48.4625V131.257C48.4625 133.655 49.8139 135.057 52.0842 135.057C54.3035 135.057 55.6804 133.643 55.6804 131.257V120.084Z" fill="white"/>
<path d="M63.7944 120.084H69.6864C73.6134 120.084 76.0137 122.097 76.0137 125.413C76.0137 128.73 73.6134 130.72 69.6864 130.72H67.4246V137.941H63.7944V120.084ZM67.4161 123.169V127.633H69.839C71.3686 127.633 72.2874 126.818 72.2874 125.371C72.2874 124.02 71.3686 123.177 69.839 123.177L67.4161 123.169Z" fill="white"/>
<path d="M78.9966 120.084H89.4121V123.169H82.6267V127.302H88.3943V130.389H82.6267V134.865H89.4121V137.952H78.9966V120.084ZM82.5165 118.552L85.4002 115.108H89.1293L85.8074 118.552H82.5165Z" fill="white"/>
<path d="M93.6133 120.084H99.0727C103.002 120.084 105.425 122.097 105.425 125.413C105.425 127.556 104.379 129.165 102.567 130.033L108.179 137.949H103.831L99.0868 130.729H97.2265V137.949H93.6133V120.084ZM97.2378 123.169V127.633H99.2762C100.809 127.633 101.702 126.818 101.702 125.371C101.702 124.02 100.809 123.177 99.2762 123.177L97.2378 123.169Z" fill="white"/>
<path d="M110.424 120.084H114.048V137.941H110.424V120.084Z" fill="white"/>
<path d="M119.047 120.084H129.454V123.169H122.669V127.302H128.428V130.389H122.669V134.865H129.454V137.952H119.047V120.084Z" fill="white"/>
<path d="M144.096 120.084H147.72V130.949C147.72 135.642 144.964 138.45 140.474 138.45C135.985 138.45 133.256 135.642 133.256 130.949V120.084H136.878V131.257C136.878 133.655 138.229 135.057 140.5 135.057C142.719 135.057 144.096 133.643 144.096 131.257V120.084Z" fill="white"/>
<path d="M152.21 120.084H157.67C161.597 120.084 164.02 122.097 164.02 125.413C164.02 127.556 162.974 129.165 161.164 130.033L166.776 137.949H162.439L157.692 130.729H155.832V137.949H152.21V120.084ZM155.832 123.169V127.633H157.873C159.403 127.633 160.296 126.818 160.296 125.371C160.296 124.02 159.403 123.177 157.873 123.177L155.832 123.169Z" fill="white"/>
<path d="M168.009 142.02L170.33 134.387H173.977L171.017 142.02H168.009Z" fill="white"/>
<path d="M30.606 145.832H37.6203C43.2747 145.832 47.1113 149.937 47.1113 154.76C47.1113 159.583 43.2832 163.702 37.6203 163.702H30.606V145.832ZM34.2276 149.122V160.397H37.674C40.9903 160.397 43.3878 157.921 43.3878 154.76C43.3878 151.599 40.9903 149.122 37.674 149.122H34.2276Z" fill="white"/>
<path d="M50.6055 145.832H61.0125V148.919H54.2271V153.049H59.9918V156.137H54.2271V160.592H61.0125V163.702H50.6055V145.832Z" fill="white"/>
<path d="M71.855 145.832H75.4767V160.397H82.262V163.702H71.855V145.832Z" fill="white"/>
<path d="M90.7325 145.832H95.4766L102.236 163.702H98.383L96.6867 159.057H89.5338L87.8233 163.702H83.9727L90.7325 145.832ZM95.5529 155.959L93.1046 149.25L90.6562 155.959H95.5529Z" fill="white"/>
<path d="M111.623 145.832H117.082C121.012 145.832 123.435 147.847 123.435 151.161C123.435 153.304 122.389 154.913 120.576 155.781L126.188 163.697H121.851L117.119 156.468H115.258V163.702H111.623V145.832ZM115.247 148.919V153.38H117.285C118.818 153.38 119.708 152.566 119.708 151.118C119.708 149.767 118.818 148.927 117.285 148.927L115.247 148.919Z" fill="white"/>
<path d="M128.428 145.832H138.838V148.919H132.052V153.049H137.817V156.137H132.058V160.592H138.843V163.702H128.428V145.832Z" fill="white"/>
<path d="M155.269 158.356L158.127 160.55C156.493 162.769 153.841 164.197 150.601 164.197C144.964 164.197 141.113 159.86 141.113 154.76C141.113 149.66 144.964 145.325 150.601 145.325C153.841 145.325 156.493 146.781 158.127 148.947L155.269 151.167C154.753 150.406 154.057 149.784 153.242 149.357C152.428 148.93 151.521 148.71 150.601 148.718C147.234 148.718 144.837 151.347 144.837 154.766C144.837 158.184 147.234 160.81 150.601 160.81C151.521 160.817 152.429 160.597 153.243 160.169C154.058 159.741 154.754 159.118 155.269 158.356Z" fill="white"/>
<path d="M161.266 145.832H164.899V152.959H173.903V145.832H177.525V163.702H173.892V156.239H164.899V163.702H161.266V145.832Z" fill="white"/>
<path d="M182.515 145.832H192.922V148.919H186.137V153.049H191.902V156.137H186.137V160.592H192.922V163.702H182.515V145.832Z" fill="white"/>
<path d="M197.129 145.832H202.588C206.515 145.832 208.938 147.847 208.938 151.161C208.938 153.304 207.892 154.913 206.083 155.781L211.695 163.697H207.361L202.617 156.476H200.753V163.702H197.129V145.832ZM200.751 148.919V153.38H202.783C204.313 153.38 205.206 152.566 205.206 151.118C205.206 149.767 204.313 148.927 202.783 148.927L200.751 148.919Z" fill="white"/>
<path d="M226.391 158.356L229.246 160.55C227.615 162.769 224.963 164.197 221.723 164.197C216.085 164.197 212.232 159.86 212.232 154.76C212.232 149.66 216.085 145.325 221.726 145.325C224.966 145.325 227.618 146.781 229.249 148.947L226.393 151.167C225.877 150.406 225.181 149.784 224.367 149.357C223.552 148.93 222.645 148.71 221.726 148.718C218.359 148.718 215.961 151.347 215.961 154.766C215.961 158.184 218.359 160.81 221.726 160.81C222.645 160.817 223.552 160.596 224.366 160.168C225.18 159.74 225.875 159.118 226.391 158.356Z" fill="white"/>
<path d="M232.385 145.832H236.009V152.959H245.014V145.832H248.636V163.702H245.014V156.239H236.009V163.702H232.385V145.832Z" fill="white"/>
<path d="M253.634 145.832H264.044V148.919H257.258V153.049H263.023V156.137H257.258V160.592H264.044V163.702H253.634V145.832Z" fill="white"/>
<path d="M30.606 171.579H41.013V174.666H34.2276V178.797H39.9923V181.884H34.2276V186.348H41.013V189.43H30.606V171.579Z" fill="white"/>
<path d="M43.7695 171.579H58.4117V174.87H52.9015V189.43H49.2798V174.87H43.7695V171.579Z" fill="white"/>
<path d="M68.2334 171.579H75.2477C80.9022 171.579 84.7359 175.687 84.7359 180.507C84.7359 185.328 80.9107 189.43 75.2477 189.43H68.2334V171.579ZM71.8551 174.87V186.145H75.2986C78.615 186.145 81.0124 183.671 81.0124 180.507C81.0124 177.344 78.615 174.87 75.2986 174.87H71.8551Z" fill="white"/>
<path d="M88.2329 171.579H98.6399V174.666H91.8546V178.797H97.6108V181.884H91.8546V186.348H98.6399V189.43H88.2329V171.579Z" fill="white"/>
<path d="M109.485 171.579H113.104V186.145H119.89V189.43H109.485V171.579Z" fill="white"/>
<path d="M119.123 178.924L121.419 171.573H125.094L122.137 178.924H119.123Z" fill="white"/>
<path d="M127.899 171.579H131.521V189.43H127.899V171.579Z" fill="white"/>
<path d="M136.522 171.579H141.164L149.148 184.358V171.579H152.77V189.43H148.128L140.144 176.597V189.43H136.522V171.579Z" fill="white"/>
<path d="M157.771 171.579H162.414L170.398 184.358V171.579H174.02V189.43H169.377L161.393 176.603V189.43H157.771V171.579Z" fill="white"/>
<path d="M196.442 180.507C196.442 185.596 192.591 189.945 186.979 189.945C181.367 189.945 177.488 185.608 177.488 180.507C177.488 175.407 181.342 171.067 186.979 171.067C192.617 171.067 196.442 175.404 196.442 180.507ZM192.719 180.507C192.719 177.089 190.321 174.46 186.979 174.46C183.637 174.46 181.215 177.089 181.215 180.507C181.215 183.926 183.612 186.552 186.979 186.552C190.346 186.552 192.719 183.926 192.719 180.507Z" fill="white"/>
<path d="M201.11 171.579L206.391 185.531L211.672 171.579H215.523L208.763 189.43H204.019L197.259 171.573L201.11 171.579Z" fill="white"/>
<path d="M221.212 171.579H225.967L232.715 189.43H228.865L227.168 184.788H220.013L218.316 189.43H214.452L221.212 171.579ZM226.035 181.706L223.584 175.011L221.135 181.72L226.035 181.706Z" fill="white"/>
<path d="M231.85 171.579H246.492V174.87H240.982V189.43H237.36V174.87H231.85V171.579Z" fill="white"/>
<path d="M249.682 171.579H253.303V189.43H249.682V171.579Z" fill="white"/>
<path d="M275.726 180.507C275.726 185.596 271.873 189.945 266.263 189.945C260.654 189.945 256.784 185.608 256.784 180.507C256.784 175.407 260.637 171.067 266.275 171.067C271.912 171.067 275.726 175.404 275.726 180.507ZM272.003 180.507C272.003 177.089 269.605 174.46 266.263 174.46C262.922 174.46 260.496 177.089 260.496 180.507C260.496 183.926 262.896 186.552 266.263 186.552C269.631 186.552 272.003 183.926 272.003 180.507Z" fill="white"/>
<path d="M279.195 171.579H283.837L291.821 184.358V171.579H295.446V189.43H290.803L282.816 176.597V189.43H279.195V171.579Z" fill="white"/>
<path d="M88.711 238.822C89.1944 238.822 89.6129 239.186 89.3923 240.117L87.1306 240.64C87.5236 239.593 88.1795 238.822 88.7025 238.822H88.711ZM89.9465 242.446H89.4998C88.9343 243.116 88.335 243.639 87.7328 243.639C87.1306 243.639 86.8026 243.272 86.8026 242.446C86.8039 242.113 86.839 241.78 86.9072 241.454L90.543 240.261C91.2498 238.584 90.3988 237.852 89.4121 237.852C87.6988 237.852 85.7368 240.719 85.7368 243.224C85.7368 244.355 86.2739 244.965 87.1108 244.965C88.0918 244.965 89.1125 244.01 89.9521 242.438L89.9465 242.446ZM89.2312 237.176L91.7757 234.793V234.51H90.4017L88.8297 237.168L89.2312 237.176ZM81.4026 238.853H82.607L80.6958 244.075C80.5262 244.521 80.7608 244.965 81.2188 244.965C82.3045 244.965 84.0602 243.891 84.6765 242.421H84.3345C83.851 242.93 82.9208 243.611 82.1236 243.755L83.8764 238.847H85.6717L85.8922 238.101H84.1535L84.8236 236.215H84.1281L82.8841 238.101L81.4054 238.31L81.4026 238.853ZM79.7798 238.604C79.8158 238.526 79.8328 238.441 79.8293 238.356C79.8257 238.27 79.8018 238.187 79.7595 238.112C79.7172 238.038 79.6577 237.975 79.586 237.928C79.5142 237.881 79.4324 237.852 79.3472 237.843C78.3012 237.843 77.0572 238.788 76.5596 240.105H76.8989C77.2381 239.622 77.8149 239.085 78.3521 238.994L76.3504 244.205C76.3107 244.282 76.2909 244.367 76.2926 244.453C76.2943 244.54 76.3175 244.625 76.3602 244.7C76.4029 244.775 76.4636 244.838 76.5369 244.884C76.6102 244.93 76.6938 244.957 76.7801 244.962C77.7753 244.962 78.9401 244.007 79.4377 242.701H79.0984C78.7592 243.184 78.1824 243.721 77.6452 243.814L79.7798 238.604ZM80.1445 235.986C80.3157 235.986 80.4833 235.936 80.6259 235.842C80.7686 235.747 80.8799 235.612 80.9458 235.454C81.0117 235.296 81.0293 235.122 80.9962 234.954C80.9631 234.786 80.881 234.631 80.7601 234.51C80.6392 234.389 80.4851 234.306 80.3172 234.273C80.1493 234.239 79.9752 234.256 79.8169 234.321C79.6587 234.387 79.5234 234.498 79.4282 234.64C79.333 234.782 79.2822 234.95 79.2822 235.121C79.2799 235.235 79.3006 235.348 79.3431 235.454C79.3856 235.56 79.449 235.656 79.5295 235.737C79.61 235.817 79.7059 235.881 79.8116 235.924C79.9173 235.967 80.0305 235.988 80.1445 235.986ZM68.6151 243.995C68.3522 244.584 68.6292 244.962 69.2032 244.962C69.3518 244.983 69.5028 244.946 69.6249 244.859C69.747 244.771 69.8308 244.64 69.8591 244.493L71.2472 240.818C71.8834 240.037 73.2093 239.189 73.7324 239.189C74.114 239.189 74.0603 239.503 73.8115 239.975L71.677 244.072C71.6271 244.163 71.6018 244.266 71.6035 244.37C71.6053 244.475 71.6341 244.577 71.6871 244.666C71.7401 244.756 71.8155 244.831 71.9059 244.882C71.9963 244.934 72.0986 244.962 72.2029 244.962C73.2489 244.962 74.4929 244.021 74.9905 242.701H74.6512C74.3091 243.184 73.7324 243.721 73.198 243.814L75.0301 240.108C75.2412 239.717 75.362 239.283 75.3835 238.839C75.3976 238.707 75.3825 238.573 75.3391 238.448C75.2958 238.322 75.2253 238.208 75.1327 238.113C75.04 238.018 74.9276 237.944 74.8033 237.898C74.679 237.851 74.546 237.833 74.4137 237.843C73.5119 237.843 72.5958 238.864 71.5074 240.122V239.161C71.5074 238.468 71.2868 237.852 70.6592 237.852C70.2662 237.852 69.8874 238.194 69.5283 238.677V238.808C70.2097 238.768 70.5093 239.789 70.0259 240.863L68.6151 243.995ZM68.5897 239.438C68.8385 238.59 68.7056 237.841 68.0525 237.841C67.2807 237.841 67.0828 238.429 66.2968 240.119V239.161C66.2968 238.468 66.0763 237.852 65.4486 237.852C64.7164 237.852 64.0491 238.983 63.5374 240.114H63.8795C64.2329 239.605 64.558 239.302 64.821 239.302C65.1348 239.302 65.3044 239.786 64.821 240.86L63.4017 243.995C63.1388 244.584 63.4158 244.962 63.9898 244.962C64.1384 244.983 64.2894 244.946 64.4115 244.859C64.5336 244.771 64.6174 244.64 64.6457 244.493L66.0339 240.818C66.4268 240.334 66.7802 239.916 67.2241 239.444L68.5897 239.438ZM60.549 238.81C61.0353 238.81 61.4538 239.175 61.2304 240.105L58.9686 240.628C59.3616 239.582 60.0147 238.81 60.5377 238.81H60.549ZM61.7817 242.435H61.3378C60.7724 243.105 60.173 243.628 59.5708 243.628C58.9686 243.628 58.6407 243.26 58.6407 242.435C58.642 242.101 58.677 241.769 58.7453 241.442L62.3726 240.249C63.0794 238.573 62.2284 237.841 61.2417 237.841C59.5256 237.841 57.5663 240.707 57.5663 243.212C57.5663 244.343 58.1035 244.954 58.9404 244.954C59.9242 244.954 60.9449 243.998 61.7817 242.426V242.435ZM53.235 238.841H54.4394L52.5254 244.063C52.3558 244.51 52.5932 244.954 53.0513 244.954C54.1369 244.954 55.8785 243.88 56.5061 242.409H56.1669C55.6806 242.918 54.7532 243.6 53.9531 243.744L55.7088 238.836H57.5013L57.7247 238.089H55.9944L56.6616 236.204H55.969L54.725 238.089L53.2463 238.299L53.235 238.841ZM46.6222 242.913C46.6222 241.301 48.4146 239.116 49.4239 239.116C49.6321 239.113 49.8396 239.14 50.0403 239.195L49.0027 242.016C48.4005 242.749 47.4703 243.639 47.0406 243.639C46.7918 243.639 46.6335 243.43 46.6335 242.947L46.6222 242.913ZM52.1465 237.575L51.5952 237.535L50.9789 238.137H50.8489C47.8633 238.137 45.2849 241.488 45.2849 243.922C45.2724 244.066 45.2916 244.211 45.3412 244.347C45.3907 244.483 45.4695 244.607 45.5718 244.709C45.6742 244.812 45.7977 244.89 45.9338 244.94C46.0698 244.99 46.215 245.009 46.3592 244.996C47.1311 244.996 47.8916 243.896 48.7426 242.718L48.703 243.139C48.5984 244.343 48.9631 244.996 49.5936 244.996C50.3258 244.996 51.0072 243.865 51.5048 242.734H51.1627C50.8093 243.246 50.4813 243.546 50.2212 243.546C49.9611 243.546 49.7491 243.048 50.2212 241.988L52.1465 237.575ZM45.7825 239.472C46.0313 238.624 45.9012 237.875 45.2453 237.875C44.4735 237.875 44.2784 238.463 43.4924 240.153V239.161C43.4924 238.468 43.2691 237.852 42.6443 237.852C41.9092 237.852 41.2307 238.983 40.7331 240.114H41.0667C41.4201 239.605 41.748 239.302 42.0081 239.302C42.3248 239.302 42.4944 239.786 42.0081 240.86L40.5945 244.004C40.3344 244.592 40.5945 244.971 41.1854 244.971C41.5388 244.971 41.6943 244.88 41.8385 244.502L43.2267 240.826C43.6197 240.343 43.9731 239.924 44.4198 239.452L45.7825 239.472ZM35.7543 244.736L35.8844 244.329C34.1428 244.001 33.9223 244.001 34.615 242.104L35.3218 240.153H37.2471C38.1122 240.153 38.1235 240.507 37.9935 241.448H38.4911L39.6531 238.27H39.1442C38.7144 239.017 38.3723 239.568 37.4309 239.568H35.531L36.5403 236.806C36.8541 235.927 37.0379 235.746 38.2168 235.746H39.065C40.2835 235.746 40.4277 236.071 40.4277 237.303H40.9112L41.3155 235.155H34.0778L33.9477 235.562C35.3613 235.845 35.4801 235.98 34.8242 237.787L33.2551 242.081C32.5991 243.874 32.3249 244.018 30.7106 244.306L30.606 244.714L35.7543 244.736Z" fill="white"/>
<path d="M71.1822 222.455C71.6657 222.455 72.0841 222.822 71.8608 223.753L69.599 224.276C69.992 223.229 70.6451 222.455 71.1709 222.455H71.1822ZM72.4121 226.082H71.9682C71.4027 226.749 70.8034 227.275 70.2012 227.275C69.599 227.275 69.271 226.908 69.271 226.082C69.2723 225.748 69.3074 225.414 69.3756 225.087L73.0143 223.897C73.7211 222.22 72.8701 221.488 71.8834 221.488C70.1673 221.488 68.208 224.355 68.208 226.86C68.208 227.991 68.7452 228.601 69.5848 228.601C70.5659 228.601 71.5865 227.646 72.4121 226.074V226.082ZM71.7053 220.812L74.2498 218.429V218.146H72.8729L71.3179 220.812H71.7053ZM63.8767 222.509H65.0811L63.1699 227.733C62.9974 228.177 63.2349 228.624 63.6929 228.624C64.7786 228.624 66.5343 227.549 67.1478 226.079H66.8085C66.3251 226.591 65.3949 227.272 64.5948 227.417L66.3505 222.509H68.143L68.3663 221.762H66.6247L67.292 219.879H66.5993L65.3553 221.762L63.8767 221.971V222.509ZM62.251 222.26C62.2871 222.183 62.3042 222.098 62.3008 222.013C62.2975 221.927 62.2738 221.844 62.2317 221.77C62.1896 221.696 62.1304 221.633 62.059 221.586C61.9876 221.54 61.9061 221.511 61.8213 221.502C60.7724 221.502 59.5284 222.444 59.0308 223.764H59.3729C59.7122 223.28 60.2889 222.743 60.8261 222.65L58.8216 227.86C58.782 227.938 58.7623 228.024 58.7642 228.11C58.7661 228.197 58.7895 228.282 58.8325 228.358C58.8754 228.433 58.9364 228.497 59.01 228.543C59.0836 228.589 59.1675 228.616 59.2542 228.621C60.2494 228.621 61.4142 227.665 61.9118 226.359H61.5725C61.2304 226.843 60.6565 227.38 60.1193 227.47L62.251 222.26ZM62.6186 219.642C62.8453 219.643 63.0633 219.554 63.2252 219.395C63.3871 219.236 63.48 219.02 63.4837 218.794C63.4815 218.565 63.3896 218.346 63.2279 218.184C63.0661 218.023 62.8473 217.931 62.6186 217.928C62.3918 217.932 62.1757 218.025 62.017 218.187C61.8582 218.349 61.7696 218.567 61.7704 218.794C61.7704 219.019 61.8598 219.234 62.0188 219.393C62.1779 219.552 62.3936 219.642 62.6186 219.642ZM55.6551 227.456L59.3079 217.886L59.1892 217.742L56.8991 218.005V218.288L57.343 218.63C57.7501 218.943 57.6257 219.243 57.2525 220.213L54.397 227.728C54.3472 227.819 54.3219 227.922 54.3235 228.026C54.3252 228.129 54.3537 228.231 54.4064 228.321C54.4591 228.411 54.5341 228.485 54.6241 228.537C54.7141 228.589 54.8161 228.617 54.9201 228.618C55.969 228.618 57.08 227.674 57.5776 226.356H57.2384C56.8502 226.894 56.2926 227.285 55.6551 227.467V227.456ZM48.7143 226.577C48.7143 224.968 50.5096 222.783 51.5161 222.783C51.724 222.781 51.9313 222.806 52.1324 222.859L51.0863 225.65C50.4841 226.382 49.554 227.272 49.1214 227.272C48.8726 227.272 48.7143 227.063 48.7143 226.577ZM54.2274 221.205L53.6619 221.166L53.0484 221.768H52.941C49.9583 221.768 47.377 225.121 47.377 227.555C47.3645 227.699 47.3837 227.845 47.4333 227.981C47.4829 228.117 47.5616 228.24 47.664 228.343C47.7663 228.445 47.8899 228.524 48.0259 228.573C48.1619 228.623 48.3071 228.642 48.4514 228.629C49.2232 228.629 49.9837 227.53 50.8347 226.351L50.7951 226.769C50.6905 227.974 51.0581 228.629 51.6857 228.629C52.418 228.629 53.0852 227.499 53.5969 226.368H53.2576C52.9042 226.877 52.5763 227.179 52.3134 227.179C52.0504 227.179 51.844 226.682 52.3134 225.621L54.2274 221.205ZM40.8999 229.899C40.8999 229.206 41.5671 228.768 42.5227 228.392C42.9818 228.601 43.454 228.781 43.9363 228.929C44.9315 229.257 45.3103 229.387 45.3103 229.69C45.3103 230.331 44.2247 230.821 42.746 230.821C41.5021 230.821 40.8999 230.56 40.8999 229.905V229.899ZM43.6083 225.664C43.1786 225.664 43.0061 225.299 43.0061 224.878C43.0061 223.713 43.6366 222 44.6177 222C45.0502 222 45.2199 222.364 45.2199 222.786C45.2199 223.95 44.5922 225.664 43.6083 225.664ZM46.4356 229.251C46.4356 228.403 45.6892 228.121 44.4735 227.747C43.4246 227.431 42.9553 227.34 42.9553 227.001C42.9553 226.718 43.1758 226.399 43.6225 226.153C44.3719 226.098 45.0747 225.768 45.5963 225.227C46.118 224.686 46.4218 223.972 46.4497 223.221C46.452 222.973 46.403 222.728 46.3055 222.5H47.7587L47.9821 221.754H45.6779C45.3977 221.583 45.0758 221.493 44.7477 221.494C43.9734 221.502 43.2317 221.806 42.6745 222.344C42.1174 222.882 41.7869 223.612 41.7509 224.386C41.7331 224.794 41.8635 225.196 42.118 225.516C42.3726 225.836 42.7342 226.053 43.1362 226.127C42.288 226.506 41.8159 226.953 41.8159 227.476C41.8107 227.614 41.8404 227.751 41.9022 227.875C41.9639 227.998 42.0558 228.104 42.1693 228.183C40.1902 228.748 39.4325 229.413 39.4325 230.343C39.4325 231.273 40.6228 231.626 42.0364 231.626C44.4339 231.626 46.4356 230.329 46.4356 229.243V229.251ZM37.298 223.639C38.1631 223.639 38.1773 223.993 38.0444 224.937H38.542L39.6955 221.782H39.1979C38.7653 222.528 38.426 223.077 37.4818 223.077H35.5847L36.5403 220.445C36.8541 219.568 37.0379 219.399 38.2168 219.399H39.065C40.2835 219.399 40.4277 219.727 40.4277 220.942H40.9112L41.3155 218.796H34.0778L33.9477 219.201C35.3613 219.483 35.4801 219.622 34.8242 221.429L33.2551 225.72C32.5991 227.516 32.3249 227.66 30.7106 227.948L30.606 228.347H38.6353L40.0743 226.068H39.5258C38.6098 226.933 37.4563 227.764 35.8505 227.764C33.7187 227.764 33.9138 227.671 34.6206 225.72L35.3811 223.639H37.298ZM38.3469 218.155L40.8914 216.399V216.116H39.3703L37.9567 218.146L38.3469 218.155Z" fill="white"/>
<path d="M70.3284 206.091C70.8147 206.091 71.2331 206.458 71.0098 207.386L68.748 207.912C69.141 206.863 69.7941 206.091 70.3171 206.091H70.3284ZM71.5611 209.718H71.1172C70.5518 210.385 69.9524 210.908 69.3502 210.908C68.748 210.908 68.42 210.541 68.42 209.718C68.4212 209.384 68.4562 209.05 68.5246 208.723L72.1661 207.524C72.8729 205.851 72.0219 205.116 71.0352 205.116C69.3191 205.116 67.3598 207.982 67.3598 210.487C67.3598 211.618 67.897 212.226 68.7367 212.226C69.7177 212.226 70.7383 211.27 71.5639 209.701L71.5611 209.718ZM70.8458 204.437L73.3903 202.054V201.771H72.0134L70.4443 204.428L70.8458 204.437ZM63.3423 206.114H64.2979L62.3867 211.338C62.2171 211.782 62.4518 212.226 62.9126 212.226C63.9983 212.226 65.7398 211.154 66.3675 209.681H66.0282C65.5419 210.193 64.6146 210.875 63.8145 211.016L65.5702 206.108H67.3598L67.5832 205.361H65.8416L66.5088 203.476H65.8162L64.5722 205.361L63.3395 205.571L63.3423 206.114ZM62.4009 206.702C62.6497 205.853 62.5196 205.104 61.8637 205.104C61.0919 205.104 60.894 205.695 60.1108 207.383V206.413C60.1108 205.721 59.8875 205.104 59.2627 205.104C58.5276 205.104 57.8491 206.235 57.3515 207.366H57.6907C58.0441 206.857 58.3721 206.555 58.6322 206.555C58.946 206.555 59.1185 207.041 58.6322 208.112L57.2186 211.256C56.9585 211.844 57.2186 212.223 57.8095 212.223C58.1629 212.223 58.3184 212.133 58.4626 211.754L59.8507 208.078C60.2437 207.592 60.5971 207.174 61.041 206.702H62.4009ZM54.3631 206.074C54.8465 206.074 55.265 206.441 55.0444 207.369L52.7827 207.895C53.1757 206.846 53.8316 206.074 54.3546 206.074H54.3631ZM55.5986 209.701H55.1519C54.5864 210.368 53.9871 210.892 53.3849 210.892C52.7827 210.892 52.4547 210.524 52.4547 209.701C52.4559 209.367 52.4909 209.033 52.5593 208.706L56.2036 207.524C56.9104 205.851 56.0594 205.116 55.0727 205.116C53.3594 205.116 51.3973 207.982 51.3973 210.487C51.3973 211.618 51.9317 212.226 52.7714 212.226C53.7524 212.226 54.773 211.27 55.6127 209.701H55.5986ZM46.7211 211.183C46.3677 211.183 45.8729 210.858 45.8729 210.569C45.965 210.224 46.0832 209.887 46.2263 209.56L46.8144 208.002C47.4449 207.256 48.4005 206.458 48.9348 206.458C49.2628 206.458 49.5003 206.668 49.5003 207.151C49.5003 208.579 48.1658 211.183 46.7239 211.183H46.7211ZM50.8489 206.574C50.8489 205.514 50.4559 205.121 49.718 205.121C48.8019 205.121 47.9368 206.091 47.0745 207.27L49.2656 201.522L49.1469 201.378L46.8568 201.641V201.924L47.3007 202.263C47.7078 202.577 47.5834 202.905 47.2102 203.849L44.8523 209.922C44.6949 210.282 44.5681 210.654 44.4735 211.036C44.4735 211.663 45.3216 212.251 46.0963 212.251C47.8774 212.251 50.8489 209.045 50.8489 206.583V206.574ZM43.7271 205.89C43.7631 205.813 43.7801 205.727 43.7765 205.642C43.773 205.556 43.7491 205.473 43.7068 205.398C43.6644 205.324 43.6049 205.261 43.5332 205.214C43.4615 205.167 43.3797 205.138 43.2945 205.13C42.2485 205.13 41.0045 206.074 40.5069 207.391H40.8461C41.1882 206.908 41.765 206.371 42.2993 206.28L40.2977 211.482C40.258 211.559 40.2381 211.645 40.24 211.732C40.2418 211.819 40.2653 211.903 40.3083 211.979C40.3513 212.054 40.4124 212.117 40.4861 212.163C40.5598 212.209 40.6437 212.235 40.7302 212.24C41.7254 212.24 42.8902 211.285 43.3878 209.978H43.0457C42.7065 210.465 42.1297 211.002 41.5925 211.092L43.7271 205.89ZM44.0946 203.272C44.2657 203.272 44.433 203.221 44.5753 203.126C44.7175 203.031 44.8284 202.896 44.8939 202.738C44.9594 202.58 44.9765 202.406 44.9431 202.238C44.9097 202.07 44.8274 201.916 44.7064 201.795C44.5854 201.674 44.4312 201.592 44.2634 201.559C44.0956 201.525 43.9216 201.542 43.7636 201.608C43.6055 201.673 43.4704 201.784 43.3753 201.926C43.2802 202.069 43.2295 202.236 43.2295 202.407C43.2291 202.521 43.2512 202.633 43.2946 202.739C43.3379 202.844 43.4016 202.939 43.4821 203.02C43.5625 203.1 43.658 203.164 43.7631 203.207C43.8682 203.25 43.9809 203.273 44.0946 203.272ZM38.819 202.424H34.0523L33.9223 202.831C35.3359 203.114 35.4546 203.25 34.7987 205.056L33.2551 209.351C32.5991 211.143 32.3249 211.287 30.7106 211.576L30.606 211.983H37.8578L39.4297 209.181H38.8643C37.9737 210.162 36.9276 211.392 35.3161 211.392C34.1004 211.392 33.9562 211.183 34.6093 209.351L36.1558 205.056C36.7976 203.264 37.0831 203.12 38.7003 202.831L38.819 202.424Z" fill="white"/>
<path d="M57.501 53.9384C57.7555 53.6839 58.0127 53.4097 58.2672 53.1355C58.7287 52.5924 59.2285 52.0832 59.7628 51.6116C59.9166 51.4715 60.079 51.3412 60.2491 51.2214C60.2943 51.1762 60.2943 51.0857 60.3395 51.0405C60.1134 51.131 59.9805 51.3232 59.7571 51.3995C59.7119 51.3995 59.6667 51.3543 59.7119 51.3119L60.1897 50.9528H60.1586C60.1134 50.9528 60.1134 50.9076 60.1134 50.8624C59.5309 50.7719 59.0842 51.1762 58.68 51.5353C58.5923 51.5805 58.5018 51.49 58.4566 51.49C57.7837 51.7134 57.2918 52.2958 56.6189 52.5644V52.4767C56.3362 52.5644 56.0902 52.7283 55.8132 52.7905C55.4391 52.8485 55.0596 52.8627 54.6823 52.833C54.1348 52.8984 53.5912 52.9928 53.0538 53.1157H53.0057C52.7153 53.1943 52.4354 53.3072 52.1717 53.4521L52.1406 53.4691L52.0756 53.5482C51.9923 53.6617 51.8876 53.7578 51.7674 53.831C51.501 53.9925 51.2527 54.1821 51.0267 54.3964C51.0054 54.4124 50.9797 54.4212 50.9532 54.4218C50.7128 54.6509 50.4754 54.8855 50.2322 55.1117C50.1891 55.1322 50.1405 55.1381 50.0937 55.1287L50.1191 55.0862L50.235 54.8968C50.2775 54.8261 50.3227 54.7583 50.3679 54.6904C50.4132 54.6226 50.4895 54.5038 50.5574 54.4077C50.5616 54.404 50.5649 54.3994 50.5672 54.3943C50.5696 54.3892 50.5708 54.3836 50.5708 54.378C50.5708 54.3724 50.5696 54.3669 50.5672 54.3617C50.5649 54.3566 50.5616 54.3521 50.5574 54.3483C50.5412 54.3334 50.52 54.3253 50.498 54.3257C50.7263 54.1092 50.9786 53.9195 51.25 53.7603C51.2189 53.7603 51.1765 53.7603 51.1991 53.715C51.2217 53.6698 51.25 53.6331 51.2755 53.5935C51.3009 53.5539 51.2755 53.5652 51.2896 53.5539L51.2557 53.5171C51.1823 53.5608 51.1124 53.61 51.0465 53.6642C50.939 53.7603 50.8542 53.9469 50.6902 53.9469C50.6676 53.9483 50.645 53.9483 50.6224 53.9469C50.6062 53.9447 50.5907 53.9389 50.5771 53.9299V53.9158L50.5998 53.879C50.6062 53.8652 50.6138 53.852 50.6224 53.8394L50.6393 53.8083C50.6486 53.7889 50.659 53.77 50.6704 53.7518C50.6704 53.7518 50.6846 53.7235 50.6931 53.7122L50.7524 53.6133L50.7779 53.5652C50.7948 53.5369 50.8118 53.5115 50.8259 53.4832C50.8308 53.4761 50.8338 53.4679 50.8347 53.4594C50.8355 53.4508 50.8342 53.4422 50.8308 53.4343C50.8274 53.4264 50.8221 53.4194 50.8153 53.4142C50.8085 53.4089 50.8005 53.4054 50.792 53.404C50.8754 53.2907 50.9801 53.1946 51.1002 53.1213H51.086C51.2585 53.0365 51.4281 52.9291 51.6006 52.8386L51.6741 52.7764C51.4223 52.8615 51.1827 52.9794 50.9616 53.127C50.9346 53.1381 50.909 53.1523 50.8853 53.1694C50.8648 53.1732 50.8437 53.1712 50.8242 53.1637C50.8047 53.1562 50.7877 53.1435 50.775 53.127C50.7714 53.116 50.7714 53.1041 50.775 53.0931C50.8203 53.0054 50.956 52.9602 51.0578 52.8697C51.103 52.8697 51.1482 52.8697 51.1482 52.9149C52.5816 51.7841 54.5409 52.0668 56.2118 51.4815L56.6133 51.213C56.8394 51.1225 57.0175 50.8991 57.2861 50.7634C57.6481 50.5157 57.9161 50.1531 58.0467 49.7343C58.0425 49.7004 58.0276 49.6688 58.0042 49.6438C57.439 50.2519 56.7685 50.7528 56.0252 51.1225C55.0837 51.6144 54.0461 51.5268 53.0679 51.6597C53.1132 51.572 53.2036 51.572 53.2941 51.572C53.2941 51.4363 53.3817 51.3911 53.4722 51.3034H53.6079C53.6503 51.3034 53.6503 51.213 53.6956 51.213C53.786 51.213 53.9189 51.1677 53.8765 51.1677C53.7408 50.9896 53.4722 51.3034 53.2489 51.1677C53.3365 51.0772 53.2941 50.9444 53.3817 50.885H53.5627C53.5715 50.8176 53.6023 50.755 53.6503 50.7069C54.3232 50.3026 54.9508 49.9888 55.5785 49.6297C55.4428 49.6297 55.3551 49.7654 55.2194 49.6749C55.3099 49.6749 55.2194 49.5392 55.3099 49.5392C55.8018 49.4064 56.2061 49.1378 56.6981 48.9568C56.52 48.9568 56.3843 49.0925 56.2061 48.9568C56.2938 48.9144 56.339 48.824 56.4889 48.824V48.6882C56.4889 48.6458 56.5341 48.6458 56.5765 48.6458C56.5432 48.6405 56.5125 48.6246 56.4889 48.6006C56.5341 48.5101 56.667 48.5554 56.7574 48.4649C56.7122 48.4649 56.6217 48.4649 56.6217 48.4197C56.7763 48.2616 56.9836 48.166 57.2041 48.1511C57.1589 48.0606 57.026 48.1511 57.026 48.0606C57.026 48.0182 57.0713 48.0182 57.1165 48.0182H57.026C56.9356 47.973 56.9808 47.8825 56.9808 47.8373C57.2635 47.5234 57.2635 47.122 57.3851 46.7629C57.3399 46.7629 57.2946 46.7629 57.2946 46.7177C56.8479 47.2096 56.1298 47.3906 55.4569 47.5658H55.2336C55.1112 47.6144 54.9797 47.6356 54.8483 47.6278C54.7169 47.6199 54.5888 47.5834 54.473 47.5206C54.3126 47.416 54.1621 47.2967 54.0235 47.1644C53.6701 46.9387 53.2903 46.7573 52.8926 46.6244C51.7801 46.2618 50.613 46.0953 49.4434 46.1324C49.9354 45.8497 50.4782 45.8497 51.0097 45.6857C51.7731 45.4596 52.4883 45.191 53.2969 45.2362C53.1479 45.2136 52.9964 45.2136 52.8474 45.2362C52.2198 45.191 51.5921 45.3719 50.9221 45.5189C50.4725 45.6094 50.0739 45.7875 49.6215 45.878C49.3388 45.9685 49.2172 46.237 48.9063 46.1918V46.0561C49.353 45.5189 49.8901 44.9818 50.6026 44.9252C51.4083 44.7923 52.1689 44.9252 52.9775 45.0157C53.5501 45.0767 54.1172 45.1816 54.6738 45.3295C54.8971 45.3295 54.9424 45.6886 55.1205 45.731C55.4032 45.8214 55.6605 45.731 55.9291 45.9119C55.9291 45.8214 55.8838 45.731 55.9291 45.6433C56.1072 45.4624 56.3305 45.6886 56.5115 45.5981C56.8677 45.3747 56.1977 44.9705 56.0167 44.6566C56.0215 44.6223 56.0374 44.5906 56.0619 44.5662C56.421 44.88 56.6896 45.239 57.1363 45.4624C57.3625 45.5529 57.8996 45.6886 57.8092 45.4172C57.5858 44.9252 57.1363 44.5238 56.7801 44.0742V43.8961C56.6896 43.8961 56.6896 43.8509 56.6444 43.8056V43.6275C56.4662 43.5371 56.5115 43.3448 56.421 43.2232C56.2853 42.9999 56.3758 42.6861 56.2853 42.4175C56.2059 42.1681 56.1464 41.9129 56.1072 41.6541C55.9715 40.8936 55.7934 40.2207 55.7029 39.5054C55.6152 38.6573 56.1977 37.9816 56.5991 37.2182C56.8908 36.6427 57.3224 36.1498 57.8544 35.7848C58.0323 35.2523 58.3214 34.7636 58.7026 34.3514C59.091 33.9536 59.5633 33.6474 60.0851 33.4552C60.4742 33.282 60.8725 33.13 61.2782 33H30.5435V56.7119H52.3131C53.1612 56.0984 54.0094 55.8044 55.2081 55.2191C55.7679 54.9647 57.0656 54.3738 57.501 53.9384ZM50.6111 50.7295C50.5206 50.7295 50.3425 50.7719 50.3877 50.6843C50.4301 50.4581 50.7439 50.4581 50.9249 50.3704C51.0125 50.3252 51.1482 50.2347 51.2387 50.28C51.3264 50.4157 51.4621 50.3704 51.5525 50.4581C51.2811 50.7295 50.9249 50.5938 50.6111 50.7295ZM43.7551 49.7428C43.7305 49.7184 43.7146 49.6866 43.7098 49.6523C44.2616 48.9398 44.7417 48.1747 45.1432 47.3679C45.7148 47.0333 46.2292 46.6095 46.6671 46.1126C47.3749 45.3039 48.226 44.633 49.1777 44.1336C49.5594 44.0128 49.9713 44.0288 50.3425 44.1788C50.2068 44.3569 49.9834 44.3117 49.8025 44.4616C49.7784 44.4643 49.7539 44.4617 49.731 44.4539C49.708 44.446 49.687 44.4332 49.6696 44.4163C49.6867 44.3985 49.6997 44.377 49.7075 44.3536C49.7153 44.3301 49.7178 44.3052 49.7148 44.2806C49.2653 44.7754 48.6377 44.9987 48.2814 45.5811C47.9987 46.0278 47.8319 46.6131 47.2495 46.7459C47.0714 46.7912 47.2947 46.6131 47.2043 46.6555C45.8161 47.5036 44.8294 48.5327 43.7551 49.7428ZM47.4729 46.7855C47.4304 46.876 47.3796 46.8845 47.34 46.9636C47.3044 47.0444 47.2398 47.109 47.159 47.1446C47.1166 47.1446 47.0714 47.1446 47.0714 47.0993C47.091 47.0066 47.1344 46.9205 47.1973 46.8496C47.2603 46.7787 47.3406 46.7254 47.4304 46.6951C47.4729 46.6951 47.4729 46.7403 47.4729 46.7855ZM49.548 53.4973C49.5221 53.5496 49.4843 53.5951 49.4378 53.6302C49.4943 53.6302 49.5339 53.6642 49.4971 53.6981C49.4024 53.8007 49.2867 53.8817 49.1579 53.9356H49.09L48.9232 54.0939C48.8695 54.1391 48.6235 54.0939 48.697 54.0402C48.813 53.9384 48.9176 53.8281 49.0278 53.7264C49.0947 53.6721 49.1571 53.6126 49.2144 53.5482C49.2428 53.5119 49.275 53.4787 49.3105 53.4493C49.353 53.4408 49.5904 53.4097 49.548 53.4973ZM48.7451 53.127C48.5783 53.2457 48.4115 53.3645 48.2334 53.4691C48.0553 53.5737 47.8432 53.6642 47.6425 53.7518C47.6349 53.7399 47.6232 53.7313 47.6096 53.7277C47.596 53.724 47.5815 53.7256 47.569 53.732C47.4036 53.8265 47.2515 53.9424 47.1166 54.0769L47.0544 54.1363L46.9894 54.2013C46.9553 54.2343 46.9232 54.2692 46.8933 54.3059C46.8765 54.3293 46.8565 54.3502 46.8339 54.3681C46.8056 54.3879 46.7293 54.3879 46.7349 54.3342L46.6558 54.3766L46.5851 54.4134C46.5759 54.4105 46.566 54.4105 46.5568 54.4134H46.5229L46.3618 54.5519C46.2676 54.639 46.1806 54.7335 46.1017 54.8346V54.8516L46.0875 54.8714L46.0564 54.9166C46.046 54.9256 46.0333 54.9315 46.0197 54.9336C46.0124 54.9246 46.0058 54.9152 45.9999 54.9053V54.8855C45.9999 54.8629 45.9744 54.8375 45.9603 54.812V54.7922L46.1017 54.6311L46.1497 54.5717L46.2232 54.4756L46.2515 54.4416C46.2996 54.3766 46.3476 54.3144 46.39 54.2522L46.407 54.2239C46.4293 54.193 46.4501 54.1609 46.4692 54.1278L46.5173 54.0402V54.0232C46.5343 53.9896 46.5485 53.9546 46.5597 53.9186C46.5608 53.9092 46.5608 53.8997 46.5597 53.8903C46.5597 53.8734 46.5597 53.8564 46.5597 53.8394C46.5613 53.8178 46.5613 53.7961 46.5597 53.7744C46.5618 53.7695 46.5628 53.7642 46.5628 53.7589C46.5628 53.7535 46.5618 53.7482 46.5597 53.7433C46.6121 53.6583 46.6717 53.5779 46.7378 53.503H46.718C46.653 53.5454 46.6105 53.602 46.5512 53.6472C46.4918 53.6924 46.4126 53.6217 46.472 53.5793C46.5314 53.5369 46.5399 53.5171 46.5738 53.486C46.6077 53.4549 46.5738 53.486 46.5738 53.486C46.6444 53.4042 46.7209 53.3276 46.8028 53.257C46.8537 53.2203 46.8989 53.1892 46.9413 53.1524L46.9611 53.1355C46.9912 53.0953 47.0242 53.0575 47.0601 53.0224C47.4898 52.6096 48.2108 52.6266 48.7762 52.3636C48.9996 52.2732 49.2681 52.4089 49.4943 52.3636C49.6344 52.3499 49.7751 52.3817 49.8958 52.4541C49.4915 52.6492 49.1183 52.898 48.7508 53.127H48.7451ZM49.6639 50.017C49.6187 49.9718 49.7968 50.017 49.8421 49.9266H49.4915C49.4463 49.9266 49.4463 49.8813 49.4463 49.8389C49.2201 49.8813 48.9515 49.9718 48.7281 50.017C48.4143 50.1075 48.1457 50.3309 47.7867 50.4213C47.2947 50.5994 46.8904 51.0037 46.3533 51.1819C46.308 51.1819 46.308 51.1366 46.308 51.0914C46.3533 50.9585 46.5342 50.9133 46.6219 50.7776C46.6219 50.7352 46.6219 50.6899 46.5766 50.6899C46.9357 50.1952 47.4248 49.9266 47.8771 49.5251V49.3894C48.0128 49.2113 48.2362 49.1067 48.3267 48.8975C48.417 48.7095 48.5773 48.5643 48.7734 48.4932C48.7281 48.4479 48.6377 48.4479 48.6377 48.3603C48.4596 48.3603 48.2814 48.4479 48.1005 48.3151C48.1796 48.2382 48.2768 48.1828 48.3832 48.1539C48.3626 48.1509 48.3429 48.1435 48.3253 48.1323C48.3078 48.1211 48.2928 48.1063 48.2814 48.0889C48.2362 48.0012 48.3663 47.8995 48.5048 47.8655C48.6433 47.8316 48.9091 47.8203 49.042 47.6874C48.7281 47.6422 48.3691 47.7779 48.0553 47.5969C48.2484 47.0221 48.6526 46.5421 49.1861 46.254C49.2286 46.254 49.319 46.254 49.319 46.2992C49.3234 46.4046 49.2894 46.5079 49.2234 46.59C49.1573 46.6722 49.0637 46.7276 48.96 46.7459C49.3281 46.7939 49.6896 46.884 50.0371 47.0145C49.9919 47.105 49.9014 47.0598 49.8562 47.0598C50.0824 47.1955 50.351 47.105 50.5743 47.2831C50.4386 47.4188 50.3057 47.2831 50.17 47.2831C51.561 47.6874 53.0396 48.0012 54.2045 48.8975C53.2185 49.3438 52.1789 49.6602 51.1115 49.8389C50.99 49.846 50.8683 49.8307 50.7524 49.7937C50.7524 49.8389 50.7524 49.9266 50.7072 49.9266C50.5525 49.9082 50.3959 49.9399 50.2605 50.017C50.1719 50.0729 50.069 50.1021 49.9642 50.1011C49.8594 50.1001 49.7572 50.069 49.6696 50.0114L49.6639 50.017Z" fill="#000091"/>
<path d="M95.7481 33.0226H70.2437C70.328 33.0508 70.4087 33.0887 70.4841 33.1357L71.1287 33.4778C71.4703 33.6374 71.7631 33.8853 71.9768 34.1959C72.0673 34.3288 72.2002 34.5974 72.1125 34.7783C72.0221 35.0017 71.9768 35.3608 71.7535 35.4484C71.4552 35.5697 71.1279 35.6012 70.812 35.5389C70.6299 35.5308 70.4495 35.5004 70.2748 35.4484C70.9477 35.7311 71.5725 36.0308 72.0221 36.6584C72.0673 36.7489 72.2454 36.7942 72.4263 36.7942C72.4688 36.7942 72.4688 36.8846 72.4688 36.927C72.3811 37.0175 72.2906 37.0627 72.3359 37.2098H72.4688C72.6949 37.1193 72.6497 36.6698 72.9635 36.8055C73.0737 36.8736 73.1535 36.9813 73.1866 37.1064C73.2198 37.2316 73.2037 37.3647 73.1416 37.4783C72.974 37.6404 72.7944 37.7897 72.6045 37.925C72.582 37.9743 72.5704 38.0278 72.5704 38.082C72.5704 38.1361 72.582 38.1896 72.6045 38.2389C72.7154 38.4005 72.7914 38.5834 72.8278 38.776C72.9635 39.0899 73.0088 39.4489 73.1416 39.7627C73.3546 40.4133 73.4606 41.0941 73.4555 41.7785C73.4555 42.1376 73.2773 42.4514 73.4102 42.8077C73.5295 43.1434 73.6961 43.4604 73.905 43.7491C74.0832 43.9784 74.2475 44.2182 74.3969 44.4672C74.6796 44.9139 75.1574 45.3635 74.9341 45.9006C74.7984 46.2145 74.3065 46.1834 73.9926 46.3473C73.724 46.5735 73.9474 46.9297 74.0831 47.1559C74.3065 47.5574 73.8004 47.826 73.5007 47.9617C73.5912 48.0946 73.7693 48.0521 73.8145 48.1398C73.8598 48.366 74.0972 48.4988 73.9474 48.7222C73.7693 48.9908 73.2321 49.1265 73.5007 49.5308C73.6788 49.8446 73.5629 50.1924 73.4555 50.5147C73.3879 50.6851 73.2788 50.8359 73.138 50.9534C72.9973 51.071 72.8295 51.1514 72.6497 51.1875C72.3746 51.2696 72.0838 51.2851 71.8015 51.2328C71.7198 51.1831 71.6281 51.1522 71.5329 51.1423C70.7696 51.0518 70.0091 50.8285 69.2457 50.8285C69.0297 50.862 68.8188 50.9228 68.6181 51.0094C68.4235 51.1515 68.2428 51.3114 68.0781 51.4872L67.9791 51.5975L67.9226 51.6653L67.883 51.7106C67.7537 51.8742 67.6365 52.0471 67.5324 52.228C67.5248 52.2386 67.5182 52.25 67.5126 52.2619C67.4993 52.282 67.4871 52.3027 67.4759 52.3241C67.3358 52.5864 67.2221 52.862 67.1366 53.1468C66.8341 54.1731 66.967 55.0523 67.179 55.2672C67.2384 55.3266 68.6577 55.7648 69.6472 56.2059C70.0118 56.3588 70.3652 56.5373 70.7046 56.7402H95.7509L95.7481 33.0226Z" fill="#E1000F"/>
<path d="M71.759 41.6739C71.94 41.7192 72.2086 41.7192 72.2086 41.8068C72.1181 42.1659 71.5809 42.2564 71.3123 42.6154H71.1766C71.0438 42.7031 71.0862 42.9292 70.9533 42.9292C70.8175 42.8996 70.6757 42.9145 70.549 42.9716C70.6288 43.071 70.7321 43.1489 70.8496 43.1983C70.9671 43.2476 71.095 43.2669 71.2219 43.2544C71.2601 43.2674 71.2934 43.2916 71.3176 43.3239C71.3418 43.3562 71.3558 43.395 71.3576 43.4353C71.3914 43.4318 71.4227 43.4156 71.4452 43.3901C71.4905 43.3901 71.5357 43.3901 71.5357 43.4353V43.6134C71.4 43.7944 71.1766 43.7039 70.9985 43.7491C71.3356 43.8399 71.6906 43.8399 72.0276 43.7491C72.3103 43.6587 72.0276 43.212 72.2086 42.9858C72.1181 42.9858 72.2086 42.8529 72.1181 42.8529C72.2086 42.7624 72.2962 42.6295 72.3867 42.5702C72.4392 42.5716 72.4912 42.56 72.5381 42.5363C72.585 42.5126 72.6253 42.4776 72.6553 42.4345C72.6553 42.3468 72.4772 42.3016 72.5224 42.2111C72.8051 42.033 73.0143 41.7644 72.9239 41.493C72.8786 41.3601 72.5224 41.3601 72.2962 41.2697C72.043 41.2195 71.7812 41.235 71.5357 41.3149C71.3066 41.3544 71.0814 41.414 70.8628 41.493C70.5588 41.5986 70.2727 41.7502 70.0146 41.9425C70.3353 41.8215 70.6653 41.727 71.0013 41.6598C71.2534 41.6308 71.5082 41.6356 71.759 41.6739Z" fill="#9D9D9C"/>
</svg>
