<svg width="217" height="87" viewBox="0 0 217 87" fill="none" xmlns="http://www.w3.org/2000/svg">
<g clip-path="url(#clip0)">
<path d="M0 72.5292L8.23954 71.7261C8.74815 74.5036 9.73995 76.5497 11.2556 77.8643C12.7713 79.179 14.8159 79.8235 17.3895 79.8235C20.1021 79.8235 22.1569 79.2438 23.5539 78.0843C24.1896 77.6088 24.7076 76.9922 25.0675 76.2824C25.4274 75.5726 25.6196 74.7888 25.629 73.9921C25.6559 73.0619 25.3469 72.1534 24.7593 71.4345C23.915 70.5722 22.864 69.9433 21.7076 69.6084C20.7175 69.2673 18.4576 68.6535 14.9278 67.7669C10.4011 66.6483 7.21723 65.2638 5.37605 63.6133C4.15405 62.5699 3.17556 61.2686 2.51012 59.802C1.84468 58.3353 1.50862 56.7392 1.52584 55.1271C1.52413 52.9851 2.15233 50.8903 3.33142 49.1065C4.607 47.1838 6.43162 45.6947 8.56505 44.8352C11.1906 43.7931 13.9981 43.2938 16.8199 43.3672C22.0823 43.3672 26.0444 44.5283 28.7062 46.8506C31.3679 49.173 32.7649 52.2694 32.8971 56.1399L24.4135 56.5082C24.054 54.3394 23.2759 52.7809 22.0789 51.8329C20.882 50.8849 19.1001 50.4092 16.7334 50.4057C14.2717 50.4057 12.3457 50.9173 10.9555 51.9403C10.5312 52.2285 10.1859 52.6195 9.95121 53.0772C9.71656 53.5348 9.60018 54.0445 9.6128 54.5593C9.61449 55.0537 9.72857 55.5412 9.9463 55.9845C10.164 56.4278 10.4797 56.8151 10.8691 57.1169C11.9372 58.0172 14.5311 58.9567 18.6509 59.9354C22.7706 60.9142 25.8223 61.9253 27.8059 62.9688C29.7067 63.9509 31.3078 65.4321 32.4394 67.2553C33.5894 69.3314 34.1654 71.6796 34.1072 74.0554C34.0491 76.4312 33.359 78.748 32.1088 80.7647C30.7565 82.8868 28.7767 84.5291 26.4479 85.4605C24.0133 86.4835 20.9718 86.9951 17.3234 86.9951C12.0236 86.9951 7.95472 85.7623 5.11665 83.2967C2.27859 80.8312 0.573038 77.242 0 72.5292Z" fill="#1D1D1B"/>
<path d="M67.6456 64.7334L59.7214 66.1708C59.5581 64.7982 58.9144 63.529 57.9057 62.5901C56.8653 61.7538 55.5589 61.325 54.2284 61.3829C53.325 61.3454 52.4249 61.5136 51.5953 61.875C50.7657 62.2363 50.028 62.7816 49.4372 63.4699C48.2471 64.8613 47.6503 67.1853 47.6469 70.442C47.6469 74.067 48.2539 76.6246 49.4677 78.1149C50.05 78.8461 50.7944 79.4301 51.6414 79.8201C52.4884 80.21 53.4145 80.3951 54.3454 80.3604C55.713 80.4162 57.0508 79.9483 58.0888 79.0509C59.0585 78.1745 59.7367 76.6741 60.1232 74.5495L68.0169 75.9C67.1997 79.542 65.6264 82.294 63.297 84.156C60.9675 86.0179 57.8599 86.9523 53.9741 86.9591C49.5254 86.9591 45.9837 85.5439 43.3491 82.7135C40.7145 79.883 39.3938 75.9801 39.387 71.0047C39.387 65.961 40.7128 62.0394 43.3644 59.2396C46.016 56.4399 49.6 55.0349 54.1165 55.0247C57.8192 55.0247 60.7624 55.826 62.946 57.4288C65.1297 59.0316 66.6962 61.4665 67.6456 64.7334Z" fill="#1D1D1B"/>
<path d="M81.719 55.7H73.6829V86.2533H81.719V55.7Z" fill="#1D1D1B"/>
<path d="M107.607 76.5292L115.618 77.8796C114.759 80.5992 113.048 82.9661 110.74 84.6266C108.52 86.1817 105.741 86.9592 102.404 86.9592C97.1181 86.9592 93.2085 85.2234 90.6756 81.7519C88.6717 78.9692 87.6697 75.4584 87.6697 71.2196C87.6697 66.1623 88.9854 62.198 91.6166 59.3267C92.8739 57.928 94.4172 56.8193 96.1405 56.0768C97.8638 55.3342 99.7265 54.9753 101.601 55.0248C106.124 55.0248 109.684 56.5252 112.282 59.5262C114.879 62.5271 116.127 67.1308 116.025 73.3373H95.9093C95.9669 75.7244 96.6146 77.5898 97.8522 78.9334C98.4388 79.5801 99.1563 80.0932 99.9563 80.4382C100.756 80.7831 101.62 80.952 102.491 80.9334C103.635 80.9734 104.757 80.6117 105.664 79.9104C106.64 79.028 107.319 77.8626 107.607 76.5753V76.5292ZM108.065 68.3909C108.011 66.0481 107.411 64.268 106.265 63.0506C105.715 62.4649 105.05 62.0003 104.313 61.6858C103.575 61.3714 102.781 61.214 101.98 61.2237C101.179 61.2333 100.389 61.4096 99.6594 61.7417C98.9296 62.0737 98.2762 62.5542 97.7403 63.1529C96.5976 64.4351 96.0347 66.1811 96.0517 68.3909H108.065Z" fill="#1D1D1B"/>
<path d="M150.229 86.2532H142.193V70.6619C142.193 67.3643 142.024 65.2295 141.684 64.2576C141.383 63.3441 140.796 62.553 140.011 62.0018C139.188 61.4477 138.214 61.1652 137.224 61.1936C135.886 61.1769 134.576 61.5791 133.475 62.3445C132.396 63.0809 131.595 64.1623 131.202 65.4137C130.795 66.6823 130.59 69.0233 130.587 72.4369V86.2736H122.55V55.6998H130.017V60.1859C132.665 56.7382 136.002 55.0127 140.026 55.0093C141.696 54.988 143.352 55.3172 144.889 55.9761C146.193 56.492 147.342 57.3377 148.225 58.4314C148.983 59.4385 149.519 60.5964 149.797 61.8279C150.139 63.619 150.287 65.4421 150.239 67.2654L150.229 86.2532Z" fill="#1D1D1B"/>
<path d="M184.871 64.7334L176.947 66.1708C176.783 64.7983 176.14 63.529 175.131 62.5901C174.091 61.7539 172.784 61.325 171.454 61.3829C170.55 61.3454 169.65 61.5136 168.821 61.875C167.991 62.2364 167.253 62.7816 166.662 63.47C165.472 64.8613 164.876 67.1853 164.872 70.442C164.872 74.067 165.479 76.6247 166.693 78.1149C167.275 78.8455 168.018 79.429 168.864 79.819C169.71 80.2089 170.635 80.3943 171.566 80.3605C172.935 80.4176 174.275 79.9495 175.314 79.051C176.287 78.1746 176.974 76.6741 177.374 74.5496L185.268 75.9C184.447 79.542 182.874 82.294 180.548 84.156C178.222 86.0179 175.104 86.9523 171.194 86.9591C166.756 86.9591 163.214 85.549 160.569 82.7288C157.924 79.9086 156.604 76.0057 156.607 71.0201C156.607 65.9764 157.933 62.0547 160.585 59.255C163.236 56.4553 166.82 55.0503 171.337 55.04C175.039 55.04 177.981 55.8414 180.161 57.4442C182.341 59.047 183.911 61.4869 184.871 64.7641" fill="#1D1D1B"/>
<path d="M208.532 76.5292L216.542 77.8796C215.683 80.5992 213.972 82.9661 211.665 84.6266C209.457 86.1817 206.685 86.9592 203.349 86.9592C198.066 86.9592 194.156 85.2234 191.62 81.7519C189.616 78.9692 188.614 75.4584 188.614 71.2196C188.614 66.1623 189.93 62.198 192.561 59.3267C193.818 57.928 195.362 56.8193 197.085 56.0768C198.808 55.3342 200.671 54.9753 202.545 55.0248C207.065 55.0248 210.625 56.5252 213.226 59.5262C215.827 62.5271 217.075 67.1308 216.969 73.3373H196.833C196.888 75.7244 197.535 77.5898 198.776 78.9334C199.363 79.5801 200.08 80.0932 200.88 80.4382C201.68 80.7831 202.545 80.952 203.415 80.9334C204.559 80.9734 205.681 80.6117 206.589 79.9104C207.564 79.028 208.243 77.8626 208.532 76.5753V76.5292ZM208.989 68.3909C208.932 66.0481 208.331 64.268 207.189 63.0506C206.639 62.4649 205.974 62.0003 205.237 61.6858C204.499 61.3714 203.705 61.214 202.904 61.2237C202.103 61.2333 201.313 61.4096 200.584 61.7417C199.854 62.0737 199.2 62.5542 198.664 63.1529C197.522 64.4351 196.959 66.1811 196.976 68.3909H208.989Z" fill="#1D1D1B"/>
<path d="M24.449 12.3433H28.9096V10.0414C28.9096 7.48378 29.1842 5.55533 29.7234 4.28675C30.3436 2.9396 31.4047 1.84723 32.7293 1.19203C34.447 0.339406 36.3487 -0.0701698 38.263 0.000180475C40.543 -0.00527725 42.8105 0.339721 44.9868 1.02323L43.8984 6.64999C42.6914 6.35179 41.4538 6.19727 40.211 6.18962C39.0445 6.18962 38.2087 6.46243 37.7035 7.00806C37.1983 7.55368 36.9457 8.60401 36.9457 10.159V12.3177H42.9524V18.7015H36.9457V42.8915H28.9096V18.7015H24.449V12.3433Z" fill="#1D1D1B"/>
<path d="M66.5318 33.1672L74.5373 34.5227C73.6843 37.2398 71.9804 39.6066 69.6801 41.2697C67.4625 42.8077 64.6838 43.5784 61.3439 43.5818C56.0509 43.5818 52.1346 41.8427 49.5949 38.3643C47.5944 35.5884 46.5941 32.0794 46.5941 27.8371C46.5941 22.773 47.9097 18.8087 50.541 15.9442C51.7986 14.5465 53.3421 13.4393 55.0656 12.6984C56.789 11.9576 58.6515 11.6008 60.525 11.6525C65.0415 11.6525 68.6018 13.153 71.2059 16.1539C73.81 19.1549 75.0595 23.7586 74.9544 29.9651H54.8286C54.8896 32.3522 55.5389 34.2158 56.7766 35.556C57.3626 36.2021 58.0792 36.7148 58.8783 37.0598C59.6774 37.4047 60.5406 37.5739 61.41 37.5561C62.554 37.5965 63.6763 37.2347 64.5838 36.533C65.5592 35.6476 66.2395 34.4812 66.5318 33.1928V33.1672ZM51.1106 8.48618L57.1173 0H64.5583L70.4786 8.48618H64.0141L60.6929 4.19961L57.6056 8.48618H51.1106ZM66.9895 24.9982C66.9285 22.6622 66.3266 20.8838 65.1839 19.663C64.6598 19.0808 64.0189 18.6171 63.3035 18.3023C62.5881 17.9875 61.8145 17.8289 61.0336 17.8368C60.2125 17.8175 59.3972 17.9803 58.6456 18.3136C57.894 18.6469 57.2246 19.1425 56.685 19.7653C55.5423 21.0509 54.9811 22.7952 55.0015 24.9982H66.9895Z" fill="#1D1D1B"/>
<path d="M96.9113 12.3432V18.7884H91.4233V31.0956C91.3717 32.552 91.4244 34.0102 91.581 35.4589C91.6856 35.8762 91.939 36.2403 92.2931 36.482C92.6906 36.7603 93.1669 36.9021 93.651 36.8861C94.7637 36.8024 95.8558 36.5399 96.8858 36.1086L97.5725 42.3799C95.5591 43.2142 93.3971 43.625 91.2199 43.5871C89.8791 43.6071 88.5478 43.3584 87.3035 42.8556C86.2955 42.4757 85.4142 41.818 84.7605 40.9578C84.156 40.0049 83.7703 38.9285 83.6313 37.8068C83.4117 35.9159 83.3268 34.0116 83.377 32.1085V18.8088H79.6845V12.3432H83.377V6.27138L91.4233 1.53467V12.3432H96.9113Z" fill="#1D1D1B"/>
<path d="M121.559 33.1674L129.569 34.523C128.707 37.2409 126.997 39.6068 124.692 41.27C122.471 42.808 119.69 43.5787 116.35 43.5821C111.071 43.5821 107.162 41.8463 104.622 38.3748C102.621 35.5989 101.621 32.0898 101.621 27.8476C101.621 22.7835 102.937 18.8192 105.568 15.9547C106.825 14.5557 108.368 13.4469 110.092 12.7043C111.815 11.9617 113.678 11.603 115.552 11.6527C120.068 11.6527 123.629 13.1532 126.233 16.1542C128.837 19.1551 130.086 23.7588 129.981 29.9653H109.861C109.918 32.3524 110.566 34.2161 111.803 35.5563C112.39 36.2024 113.106 36.7151 113.905 37.06C114.704 37.4049 115.568 37.5742 116.437 37.5563C117.581 37.5985 118.704 37.2365 119.611 36.5333C120.592 35.6426 121.273 34.4659 121.559 33.1674ZM122.016 24.9831C121.962 22.6471 121.36 20.8687 120.211 19.6479C119.661 19.0624 118.997 18.5978 118.26 18.2834C117.523 17.969 116.729 17.8117 115.929 17.8213C115.128 17.8309 114.339 18.0073 113.609 18.3393C112.88 18.6712 112.227 19.1517 111.692 19.7502C110.549 21.0358 109.986 22.7801 110.003 24.9831H122.016Z" fill="#1D1D1B"/>
<path d="M158.413 43.4795H154.11V40.9219C153.458 41.8713 152.585 42.6458 151.567 43.1777C150.653 43.6546 149.641 43.9087 148.612 43.9194C147.613 43.923 146.627 43.7016 145.725 43.2714C144.823 42.8412 144.028 42.2131 143.399 41.4334C141.954 39.7965 141.234 37.5117 141.237 34.579C141.237 31.5815 141.937 29.3018 143.338 27.7399C144 26.9826 144.82 26.3807 145.739 25.9768C146.659 25.5729 147.655 25.3768 148.658 25.4023C149.634 25.4101 150.596 25.6353 151.475 26.0616C152.355 26.4879 153.13 27.1047 153.744 27.8678V19.0747H158.398L158.413 43.4795ZM145.972 34.2721C145.972 36.1647 146.232 37.5288 146.75 38.3643C147.06 38.9281 147.517 39.3965 148.072 39.7191C148.627 40.0417 149.258 40.2064 149.899 40.1955C150.429 40.1945 150.953 40.0698 151.428 39.831C151.902 39.5923 152.316 39.246 152.635 38.8195C153.384 37.9022 153.759 36.5381 153.759 34.7273C153.759 32.6812 153.394 31.2183 152.665 30.3385C152.328 29.9188 151.902 29.5802 151.418 29.3477C150.934 29.1151 150.405 28.9944 149.868 28.9944C149.332 28.9944 148.802 29.1151 148.318 29.3477C147.834 29.5802 147.408 29.9188 147.071 30.3385C146.364 31.2029 145.972 32.5124 145.972 34.2721Z" fill="#1D1D1B"/>
<path d="M173.188 37.853L177.827 38.6357C177.327 40.2107 176.335 41.5814 174.999 42.5437C173.565 43.4783 171.879 43.9462 170.172 43.8839C167.12 43.8839 164.857 42.8779 163.382 40.8659C162.222 39.2597 161.642 37.2273 161.642 34.7685C161.642 31.8392 162.404 29.5442 163.926 27.8834C164.654 27.0732 165.548 26.4311 166.546 26.0011C167.545 25.5711 168.624 25.3634 169.709 25.3923C172.323 25.3923 174.388 26.2619 175.904 28.0011C177.42 29.7402 178.142 32.4019 178.071 35.986H166.413C166.37 37.1705 166.772 38.328 167.537 39.229C167.874 39.6085 168.288 39.9105 168.752 40.1144C169.215 40.3183 169.717 40.4193 170.223 40.4106C170.885 40.4326 171.535 40.2209 172.059 39.8122C172.63 39.2941 173.025 38.6089 173.188 37.853ZM173.452 33.1214C173.501 32.0072 173.139 30.9142 172.435 30.0523C172.129 29.7132 171.755 29.4435 171.338 29.2609C170.921 29.0783 170.469 28.9872 170.014 28.9934C169.535 28.9787 169.058 29.0711 168.618 29.2639C168.179 29.4567 167.787 29.7452 167.471 30.1085C166.774 30.9581 166.425 32.0427 166.495 33.1419L173.452 33.1214Z" fill="#1D1D1B"/>
<path d="M195.943 19.0747H191.29V43.4949H195.943V19.0747Z" fill="#1D1D1B"/>
<path d="M204.193 31.203L199.972 30.4358C200.32 28.9191 201.19 27.575 202.428 26.6402C203.588 25.8184 205.31 25.4075 207.596 25.4075C209.671 25.4075 211.217 25.6547 212.234 26.1492C213.129 26.5321 213.879 27.1914 214.375 28.0316C214.793 28.7938 214.996 30.1902 214.996 32.221L214.95 37.6841C214.919 38.8361 214.994 39.9885 215.174 41.1266C215.352 41.9425 215.631 42.733 216.003 43.4796H211.4C211.278 43.1676 211.131 42.7072 210.953 42.0934C210.876 41.8172 210.82 41.633 210.785 41.5461C210.052 42.2826 209.19 42.8758 208.242 43.2955C207.325 43.6866 206.338 43.885 205.343 43.8786C203.532 43.8786 202.104 43.3841 201.06 42.3952C200.549 41.918 200.145 41.3368 199.875 40.6903C199.605 40.0437 199.475 39.3467 199.493 38.6457C199.479 37.7048 199.726 36.7784 200.206 35.9704C200.682 35.1872 201.377 34.5626 202.204 34.175C203.388 33.6557 204.632 33.2896 205.907 33.0855C207.446 32.8391 208.959 32.4539 210.429 31.9345V31.469C210.463 31.1182 210.422 30.764 210.307 30.431C210.192 30.098 210.006 29.7942 209.762 29.5406C209.325 29.1621 208.491 28.9677 207.265 28.9677C206.582 28.9338 205.906 29.1125 205.327 29.4792C204.782 29.9225 204.385 30.5246 204.193 31.203ZM210.424 35.0037C209.492 35.2899 208.546 35.5289 207.591 35.7198C206.706 35.8547 205.847 36.1292 205.048 36.5331C204.768 36.7081 204.538 36.9514 204.378 37.2404C204.218 37.5294 204.133 37.8545 204.132 38.1853C204.129 38.5075 204.193 38.8266 204.321 39.122C204.449 39.4173 204.638 39.682 204.875 39.899C205.12 40.137 205.41 40.323 205.728 40.446C206.046 40.5691 206.385 40.6265 206.726 40.6151C207.596 40.6059 208.44 40.3133 209.132 39.7813C209.66 39.4072 210.05 38.8675 210.24 38.2467C210.396 37.4969 210.457 36.7305 210.424 35.9653V35.0037Z" fill="#1D1D1B"/>
<path d="M71.3839 47.4081C71.3839 46.1515 71.7544 44.9232 72.4485 43.8785C73.1426 42.8337 74.1292 42.0194 75.2835 41.5385C76.4378 41.0577 77.7079 40.9319 78.9333 41.177C80.1586 41.4221 81.2842 42.0272 82.1677 42.9157C83.0511 43.8042 83.6528 44.9362 83.8965 46.1686C84.1402 47.401 84.0151 48.6784 83.537 49.8393C83.0589 51.0002 82.2492 51.9924 81.2104 52.6905C80.1716 53.3886 78.9503 53.7612 77.7009 53.7612C76.0255 53.7612 74.4188 53.0918 73.2341 51.9004C72.0494 50.709 71.3839 49.093 71.3839 47.4081Z" fill="#E1000E"/>
<path d="M66.9896 24.9983C66.9285 22.6624 66.3267 20.884 65.184 19.6631C64.6598 19.081 64.0189 18.6172 63.3035 18.3025C62.5881 17.9877 61.8145 17.829 61.0337 17.837C60.2125 17.8177 59.3972 17.9804 58.6456 18.3137C57.8941 18.647 57.2247 19.1427 56.685 19.7654C55.5423 21.0511 54.9812 22.7954 55.0015 24.9983H66.9896Z" fill="#E1000E"/>
<path d="M25.629 73.9971C25.6558 73.0669 25.3469 72.1583 24.7593 71.4395C24.1744 70.7387 23.1622 70.13 21.7076 69.6133C21.3923 69.5059 20.9447 69.3678 20.375 69.2041C19.0595 70.5921 18.3439 72.4476 18.3849 74.3647C18.4259 76.2819 19.2201 78.1047 20.5938 79.4346C21.6736 79.2103 22.6859 78.7337 23.5488 78.0432C24.1845 77.5678 24.7025 76.9511 25.0624 76.2413C25.4223 75.5315 25.6145 74.7478 25.6239 73.951" fill="#E1000E"/>
<path d="M166.693 78.1098C166.749 78.1814 166.81 78.2428 166.871 78.3093C168.471 77.8851 169.877 76.921 170.854 75.5786C171.831 74.2362 172.32 72.5969 172.239 70.9352C172.158 69.2735 171.512 67.6902 170.409 66.4504C169.306 65.2106 167.813 64.3896 166.179 64.1248C165.308 65.54 164.872 67.6406 164.872 70.4267C164.872 74.0517 165.479 76.6093 166.693 78.0996" fill="#E1000E"/>
</g>
<defs>
<clipPath id="clip0">
<rect width="217" height="87" fill="white"/>
</clipPath>
</defs>
</svg>
