<svg width="280" height="79" viewBox="0 0 280 79" fill="none" xmlns="http://www.w3.org/2000/svg">
<g clip-path="url(#clip0)">
<path d="M106.187 29.9628C106.219 29.8942 106.24 29.8207 106.247 29.7453C106.238 29.6293 106.184 29.5213 106.096 29.4448C106.008 29.3683 105.893 29.3294 105.776 29.3367H102.781C102.661 29.3507 102.547 29.3993 102.454 29.4766C102.361 29.5538 102.293 29.6564 102.258 29.7717L98.9447 37.9314C98.7526 38.3927 98.5869 38.4784 98.4478 38.4784C98.3086 38.4784 98.1761 38.3927 97.9839 37.9314L94.6709 29.7717C94.6356 29.6564 94.5673 29.5538 94.4744 29.4766C94.3814 29.3993 94.2678 29.3507 94.1474 29.3367H91.0928C91.0361 29.3321 90.9791 29.3393 90.9254 29.3578C90.8717 29.3762 90.8224 29.4056 90.7807 29.444C90.7389 29.4825 90.7057 29.529 90.683 29.5809C90.6603 29.6328 90.6487 29.6887 90.6489 29.7453C90.6596 29.82 90.6796 29.893 90.7085 29.9628L93.5047 36.3627L96.5328 43.2898V49.1097C96.5302 49.1801 96.5417 49.2502 96.5667 49.3161C96.5918 49.3819 96.6298 49.4421 96.6786 49.4931C96.7274 49.544 96.7859 49.5848 96.8508 49.6129C96.9157 49.641 96.9855 49.6559 97.0563 49.6568H99.8061C99.8769 49.6559 99.9468 49.641 100.012 49.6129C100.076 49.5848 100.135 49.544 100.184 49.4931C100.233 49.4421 100.271 49.3819 100.296 49.3161C100.321 49.2502 100.332 49.1801 100.33 49.1097V43.2898L102.099 39.2364L106.187 29.9628Z" fill="white"/>
<path d="M66.9274 42.0903C66.2118 42.0903 65.1119 42.0046 64.4758 41.9782V49.1229C64.4794 49.1934 64.4685 49.264 64.4438 49.3302C64.4191 49.3965 64.3811 49.457 64.3321 49.5082C64.2832 49.5594 64.2242 49.6001 64.1589 49.6279C64.0936 49.6557 64.0233 49.67 63.9523 49.6699H61.2025C61.0578 49.6682 60.9196 49.6098 60.8179 49.5074C60.7162 49.405 60.6591 49.2668 60.6591 49.1229V30.2923C60.6591 29.7453 60.9838 29.5541 61.5338 29.4684C63.3208 29.222 65.1233 29.103 66.9274 29.1125C71.1681 29.1125 74.8787 30.5955 74.8787 35.4399V35.6838C74.8522 40.5282 71.1681 42.0903 66.9274 42.0903ZM71.0555 35.4399C71.0555 33.1396 69.6773 32.263 66.9274 32.263C66.351 32.263 64.9727 32.3158 64.4758 32.3751V38.887C64.9197 38.887 66.4636 38.9661 66.9274 38.9661C69.9025 38.9661 71.0555 37.8786 71.0555 35.6706V35.4399Z" fill="white"/>
<path d="M91.053 49.6831H88.1376C88.0122 49.6718 87.8938 49.621 87.7996 49.538C87.7055 49.455 87.6404 49.3441 87.6141 49.2217L86.3485 44.0214H80.0206L78.755 49.2217C78.7307 49.3451 78.6662 49.4571 78.5717 49.5404C78.4771 49.6238 78.3576 49.6739 78.2316 49.6831H75.3161C75.2527 49.6867 75.1892 49.6774 75.1294 49.6559C75.0697 49.6344 75.015 49.6011 74.9685 49.558C74.9221 49.5149 74.8849 49.4629 74.8592 49.4051C74.8336 49.3473 74.8199 49.2849 74.8191 49.2217C74.8191 49.2217 74.8191 49.1361 74.8191 49.0833L79.3315 31.9467C79.9941 29.4026 81.9819 29.1521 83.1614 29.1521C84.3408 29.1521 86.322 29.4026 86.9846 31.9467L91.497 49.0833C91.497 49.1361 91.497 49.1888 91.497 49.2217C91.4955 49.3403 91.4488 49.4539 91.3664 49.5395C91.284 49.6251 91.172 49.6765 91.053 49.6831ZM83.6252 32.764C83.5457 32.441 83.4595 32.329 83.1879 32.329C82.9162 32.329 82.8234 32.441 82.7439 32.764L80.7561 40.8973H85.5998L83.6252 32.764Z" fill="white"/>
<path d="M113.774 49.8875C112.137 49.9132 110.502 49.7472 108.904 49.3931C108.766 49.3779 108.637 49.3146 108.542 49.2146C108.446 49.1145 108.389 48.984 108.38 48.8461V46.8688C108.38 46.7301 108.435 46.5969 108.533 46.4982C108.631 46.3995 108.764 46.3432 108.904 46.3415H108.957C110.063 46.4799 112.813 46.6183 113.827 46.6183C116.279 46.6183 117.021 45.7417 117.021 44.1599C117.021 43.0855 116.497 42.5385 114.682 41.4707L111.051 39.3089C108.486 37.8061 107.804 36.2177 107.804 34.2997C107.804 31.2876 109.566 29.0994 114.682 29.0994C116.46 29.1118 118.233 29.2772 119.983 29.5937C120.114 29.6076 120.236 29.6676 120.327 29.7631C120.418 29.8585 120.472 29.983 120.48 30.1144V32.1378C120.483 32.2009 120.474 32.2641 120.452 32.3235C120.431 32.3829 120.397 32.4373 120.354 32.4835C120.31 32.5297 120.258 32.5667 120.2 32.5923C120.142 32.6178 120.079 32.6314 120.016 32.6322H119.956C118.141 32.4674 116.325 32.3619 114.536 32.3619C112.502 32.3619 111.647 33.0672 111.647 34.2997C111.647 35.2027 112.117 35.7497 113.906 36.7384L117.219 38.5707C120.248 40.2448 121.043 41.9914 121.043 44.1599C121.01 46.9347 119.274 49.8875 113.774 49.8875Z" fill="white"/>
<path d="M137.33 49.8875C135.516 49.8814 133.704 49.7735 131.903 49.5645C131.798 49.56 131.696 49.5338 131.602 49.4876C131.508 49.4413 131.426 49.376 131.359 49.2959C131.292 49.2158 131.243 49.1226 131.214 49.0224C131.186 48.9223 131.179 48.8173 131.194 48.7143V30.2923C131.179 30.1893 131.186 30.0843 131.214 29.9842C131.243 29.884 131.292 29.7908 131.359 29.7107C131.426 29.6306 131.508 29.5653 131.602 29.519C131.696 29.4728 131.798 29.4466 131.903 29.4421C133.704 29.2268 135.516 29.1168 137.33 29.1125C142.829 29.1125 145.944 32.0719 145.944 37.4897V41.5168C145.97 46.9347 142.829 49.8875 137.33 49.8875ZM142.173 37.4897C142.173 33.3835 140.08 32.3158 137.33 32.3158C136.309 32.3158 135.594 32.3751 135.017 32.4015V46.6051C135.594 46.6051 136.342 46.6842 137.33 46.6842C140.08 46.6842 142.173 45.6231 142.173 41.5168V37.4897Z" fill="white"/>
<path d="M160.687 49.5052C158.962 49.8085 157.21 49.9366 155.459 49.8874C151.881 49.8874 149.104 48.9317 149.104 44.2785V34.7215C149.104 30.0748 151.881 29.1125 155.459 29.1125C157.21 29.0641 158.962 29.1944 160.687 29.5014C161.104 29.5541 161.237 29.6925 161.237 30.0748V31.8214C161.237 31.9671 161.179 32.107 161.076 32.2106C160.973 32.3142 160.833 32.3733 160.687 32.3751H155.074C153.477 32.3751 152.901 32.9221 152.901 34.7215V37.6809H160.355C160.428 37.6808 160.5 37.6952 160.567 37.7231C160.635 37.751 160.695 37.7919 160.747 37.8434C160.798 37.8949 160.838 37.956 160.865 38.0231C160.893 38.0903 160.906 38.1621 160.905 38.2345V40.2118C160.904 40.3557 160.845 40.4932 160.742 40.5944C160.639 40.6955 160.5 40.7523 160.355 40.7523H152.901V44.2851C152.901 46.091 153.477 46.6381 155.074 46.6381H160.687C160.832 46.6398 160.971 46.698 161.074 46.8002C161.176 46.9024 161.235 47.0405 161.237 47.1851V48.9383C161.237 49.314 161.091 49.4524 160.687 49.5052Z" fill="white"/>
<path d="M182.864 49.5052C181.317 49.7541 179.753 49.8819 178.186 49.8875C174.608 49.8875 171.832 48.9318 171.832 44.2785V29.9101C171.832 29.765 171.89 29.6259 171.993 29.5233C172.096 29.4207 172.236 29.363 172.382 29.363H175.105C175.177 29.363 175.248 29.3772 175.315 29.4048C175.381 29.4324 175.441 29.4728 175.492 29.5236C175.542 29.5745 175.582 29.6349 175.609 29.7012C175.636 29.7676 175.649 29.8386 175.648 29.9101V44.2785C175.648 46.0844 176.205 46.6315 177.802 46.6315H182.864C183.01 46.6315 183.15 46.6891 183.253 46.7917C183.356 46.8943 183.414 47.0335 183.414 47.1786V48.9318C183.414 49.314 183.275 49.4261 182.864 49.5052Z" fill="white"/>
<path d="M200.722 49.6831H197.806C197.681 49.6718 197.562 49.621 197.468 49.538C197.374 49.455 197.309 49.3441 197.283 49.2217L196.017 44.0214H189.689L188.423 49.2217C188.398 49.3446 188.333 49.456 188.239 49.5392C188.145 49.6224 188.026 49.6729 187.9 49.6831H184.985C184.921 49.6867 184.858 49.6774 184.798 49.6559C184.738 49.6344 184.683 49.6011 184.637 49.558C184.591 49.5149 184.553 49.4629 184.528 49.4051C184.502 49.3473 184.488 49.2849 184.488 49.2217C184.488 49.2217 184.488 49.1361 184.488 49.0833L189 31.9467C189.663 29.4026 191.65 29.1521 192.83 29.1521C194.009 29.1521 195.991 29.4026 196.653 31.9467L201.165 49.0833C201.165 49.1361 201.165 49.1888 201.165 49.2217C201.164 49.3403 201.117 49.4539 201.035 49.5395C200.953 49.6251 200.841 49.6765 200.722 49.6831ZM193.294 32.7508C193.208 32.4278 193.128 32.3158 192.856 32.3158C192.585 32.3158 192.492 32.4278 192.419 32.7508L190.431 40.8841H195.268L193.294 32.7508Z" fill="white"/>
<path d="M221.72 49.5052C220.173 49.7541 218.609 49.8819 217.042 49.8875C213.464 49.8875 210.681 48.9318 210.681 44.2785V29.9101C210.682 29.7644 210.742 29.6253 210.846 29.5228C210.95 29.4204 211.091 29.363 211.237 29.363H213.96C214.106 29.363 214.246 29.4207 214.349 29.5233C214.452 29.6259 214.51 29.765 214.51 29.9101V44.2785C214.51 46.0844 215.06 46.6315 216.657 46.6315H221.72C221.865 46.6315 222.005 46.6891 222.109 46.7917C222.212 46.8943 222.27 47.0335 222.27 47.1786V48.9318C222.27 49.314 222.13 49.4261 221.72 49.5052Z" fill="white"/>
<path d="M231.208 49.8874C226.669 49.8874 223.363 47.3697 223.363 41.3521V37.6545C223.363 31.6369 226.676 29.0862 231.208 29.0862C235.74 29.0862 239.047 31.6105 239.047 37.6545V41.3521C239.047 47.3697 235.747 49.8874 231.208 49.8874ZM235.184 37.6545C235.184 34.0426 233.859 32.4278 231.208 32.4278C228.558 32.4278 227.233 34.0426 227.233 37.6545V41.3521C227.233 44.9639 228.558 46.5788 231.208 46.5788C233.859 46.5788 235.184 44.9639 235.184 41.3521V37.6545Z" fill="white"/>
<path d="M245.905 49.6832H243.182C243.036 49.6832 242.896 49.6255 242.793 49.5229C242.69 49.4203 242.632 49.2812 242.632 49.1361V29.8574C242.632 29.787 242.647 29.7175 242.676 29.6529C242.704 29.5884 242.745 29.5302 242.796 29.4816C242.847 29.4331 242.908 29.3953 242.974 29.3704C243.04 29.3455 243.111 29.334 243.182 29.3367H245.905C245.976 29.3331 246.047 29.3439 246.113 29.3685C246.18 29.393 246.241 29.4308 246.292 29.4795C246.344 29.5282 246.385 29.5869 246.413 29.6518C246.441 29.7168 246.455 29.7867 246.455 29.8574V49.1229C246.457 49.1959 246.444 49.2684 246.417 49.3363C246.39 49.4042 246.35 49.4661 246.299 49.5183C246.247 49.5705 246.186 49.612 246.118 49.6403C246.051 49.6686 245.978 49.6832 245.905 49.6832Z" fill="white"/>
<path d="M265.121 49.6831H261.761C261.463 49.6831 261.35 49.4063 261.211 49.1361L257.236 41.8266H256.851C256.136 41.8266 255.036 41.7475 254.4 41.7212V49.1361C254.403 49.2066 254.392 49.2772 254.368 49.3434C254.343 49.4097 254.305 49.4702 254.256 49.5214C254.207 49.5726 254.148 49.6133 254.083 49.6411C254.017 49.6689 253.947 49.6832 253.876 49.6831H251.126C250.98 49.6831 250.84 49.6255 250.737 49.5229C250.634 49.4203 250.576 49.2811 250.576 49.1361V30.2923C250.576 29.7452 250.908 29.5541 251.458 29.4684C253.245 29.222 255.047 29.103 256.851 29.1125C261.092 29.1125 264.802 30.6219 264.802 35.3015V35.5454C264.802 38.452 263.351 40.2579 261.092 41.1279L265.419 49.1229C265.453 49.19 265.469 49.2651 265.465 49.3404C265.473 49.3872 265.47 49.4353 265.455 49.4805C265.441 49.5258 265.416 49.567 265.382 49.6006C265.348 49.6341 265.307 49.6592 265.261 49.6736C265.216 49.6879 265.168 49.6912 265.121 49.6831ZM260.992 35.3147C260.992 33.2583 259.614 32.3883 256.864 32.3883C256.288 32.3883 254.91 32.441 254.413 32.4937V38.6563C254.857 38.6563 256.401 38.7354 256.864 38.7354C259.7 38.7354 260.992 37.9709 260.992 35.5585V35.3147Z" fill="white"/>
<path d="M279.439 49.5052C277.714 49.8085 275.963 49.9366 274.212 49.8874C270.633 49.8874 267.85 48.9317 267.85 44.2785V34.7215C267.85 30.0748 270.633 29.1125 274.212 29.1125C275.963 29.0641 277.715 29.1944 279.439 29.5014C279.85 29.5541 279.989 29.6925 279.989 30.0748V31.8214C279.989 31.9671 279.932 32.107 279.829 32.2106C279.726 32.3142 279.586 32.3733 279.439 32.3751H273.821C272.23 32.3751 271.654 32.9221 271.654 34.7215V37.6809H279.108C279.181 37.6808 279.253 37.6952 279.32 37.7231C279.387 37.751 279.448 37.7919 279.499 37.8434C279.551 37.8949 279.591 37.956 279.618 38.0231C279.645 38.0903 279.659 38.1621 279.658 38.2345V40.2118C279.656 40.3557 279.598 40.4932 279.495 40.5944C279.392 40.6955 279.253 40.7523 279.108 40.7523H271.654V44.2851C271.654 46.091 272.23 46.6381 273.821 46.6381H279.439C279.585 46.6381 279.725 46.6957 279.828 46.7983C279.932 46.9009 279.989 47.04 279.989 47.1851V48.9383C279.989 49.314 279.85 49.4524 279.439 49.5052Z" fill="white"/>
<path d="M67.0334 21.4142H65.5558C65.4233 21.4142 65.3769 21.2956 65.3173 21.1703L63.568 17.9539H63.3957C63.0843 17.9539 62.6006 17.9144 62.3223 17.9078V21.1703C62.3241 21.2017 62.3194 21.2332 62.3086 21.2627C62.2977 21.2922 62.2809 21.3192 62.2592 21.3421C62.2375 21.3649 62.2113 21.3831 62.1823 21.3955C62.1533 21.4079 62.122 21.4143 62.0904 21.4142H60.8778C60.8459 21.4142 60.8143 21.4079 60.785 21.3955C60.7556 21.3832 60.729 21.3651 60.7067 21.3424C60.6845 21.3197 60.6671 21.2927 60.6555 21.2632C60.6439 21.2336 60.6384 21.202 60.6393 21.1703V12.8788C60.6393 12.635 60.785 12.5493 61.0236 12.5163C61.8093 12.4058 62.6022 12.3529 63.3957 12.3581C65.2709 12.3581 66.8943 13.0173 66.8943 15.0868V15.1923C66.9287 15.7236 66.7873 16.2515 66.4918 16.6954C66.1963 17.1393 65.7628 17.4748 65.2576 17.6507L67.1593 21.1703C67.1675 21.2028 67.1675 21.2368 67.1593 21.2692C67.1612 21.2871 67.1593 21.3051 67.1539 21.3222C67.1484 21.3393 67.1396 21.3551 67.1278 21.3687C67.116 21.3823 67.1015 21.3933 67.0853 21.4011C67.0691 21.409 67.0514 21.4134 67.0334 21.4142ZM65.2179 15.0868C65.2179 14.1773 64.6083 13.7686 63.3957 13.7686C63.1439 13.7686 62.541 13.7686 62.3223 13.8148V16.5303C62.5144 16.5303 63.1969 16.5632 63.3957 16.5632C64.648 16.5632 65.2179 16.2271 65.2179 15.1659V15.0868Z" fill="white"/>
<path d="M73.7523 18.5669H69.7766V18.6065C69.7504 18.8066 69.7694 19.0101 69.8322 19.202C69.8951 19.394 70.0001 19.5696 70.1397 19.7161C70.2794 19.8625 70.4501 19.9762 70.6394 20.0488C70.8288 20.1213 71.032 20.151 71.2344 20.1356C72.1157 20.1356 72.9572 20.0631 73.4608 20.0169H73.5005C73.6198 20.0169 73.7192 20.0763 73.7192 20.1949V20.9924C73.7192 21.1902 73.6794 21.2693 73.4608 21.3088C72.6862 21.4596 71.8976 21.5281 71.1085 21.5131C70.7078 21.5348 70.3072 21.4702 69.9339 21.3239C69.5606 21.1775 69.2235 20.9527 68.9455 20.6649C68.6675 20.3771 68.4551 20.0331 68.323 19.6562C68.1908 19.2794 68.142 18.8786 68.1798 18.4812V17.5915C68.1798 15.713 69.2333 14.5266 71.0886 14.5266C72.9439 14.5266 73.971 15.7921 73.971 17.5915V18.2506C73.9908 18.4615 73.918 18.5669 73.7523 18.5669ZM72.3807 17.3871C72.3807 16.4446 71.8639 15.9042 71.1085 15.9042C70.9196 15.9027 70.7326 15.9414 70.56 16.0177C70.3873 16.094 70.2331 16.2061 70.1076 16.3465C69.9821 16.487 69.8883 16.6525 69.8323 16.832C69.7764 17.0114 69.7597 17.2007 69.7833 17.3871V17.4333H72.3542L72.3807 17.3871ZM73.0963 12.2066L71.6386 13.6962C71.5392 13.8082 71.4928 13.8544 71.347 13.8544H70.3134C70.2405 13.8544 70.2007 13.8148 70.2007 13.7687C70.2006 13.7463 70.2053 13.7241 70.2144 13.7037C70.2236 13.6832 70.237 13.6649 70.2537 13.65L71.4 12.2066C71.5127 12.0682 71.5591 12.022 71.7181 12.022H72.9903C73.0764 12.022 73.1228 12.055 73.1228 12.1077C73.1239 12.1425 73.1147 12.1769 73.0963 12.2066Z" fill="white"/>
<path d="M81.3657 15.713L80.9615 15.8711C81.1687 16.1489 81.276 16.4878 81.2663 16.8334V16.9191C81.2663 18.4219 80.2194 19.1139 78.3906 19.1139C77.94 19.1264 77.491 19.0572 77.0654 18.9096C77.0071 18.9391 76.9575 18.9832 76.9215 19.0375C76.8855 19.0918 76.8643 19.1545 76.8599 19.2194C76.8599 19.4632 76.9925 19.5555 77.2708 19.6148L78.702 19.9576C80.3519 20.3399 81.4187 20.6167 81.4187 21.8822V22.0008C81.4187 23.2333 80.5043 23.8924 78.4436 23.8924C76.3829 23.8924 75.442 23.1608 75.442 21.9151V21.8031C75.448 21.553 75.5059 21.3069 75.6119 21.0801C75.718 20.8533 75.8699 20.6506 76.0582 20.4849C75.8882 20.3542 75.7507 20.1864 75.6565 19.9943C75.5623 19.8023 75.5138 19.5912 75.5149 19.3776C75.5103 19.1882 75.552 19.0006 75.6362 18.8307C75.7204 18.6608 75.8448 18.5138 75.9986 18.4021C75.8224 18.2138 75.6874 17.9913 75.6018 17.7485C75.5163 17.5058 75.4822 17.2481 75.5016 16.9916V16.9059C75.5016 15.6998 76.2901 14.6848 78.3839 14.6848H81.2199C81.3078 14.6848 81.3921 14.7195 81.4542 14.7813C81.5163 14.8431 81.5512 14.9269 81.5512 15.0143V15.5218C81.5777 15.6273 81.5048 15.6536 81.3657 15.713ZM79.8218 21.8822C79.8218 21.6185 79.6628 21.4603 78.3906 21.1637L77.3105 20.9067C77.1061 21.1395 76.9994 21.4415 77.0123 21.7503V21.8624C77.0123 22.3567 77.3105 22.6599 78.4502 22.6599C79.5899 22.6599 79.8218 22.4029 79.8218 21.9678V21.8822ZM79.6893 16.8532C79.6893 16.2798 79.4375 15.8316 78.3641 15.8316C77.2906 15.8316 77.0388 16.293 77.0388 16.8532V16.9521C77.0388 17.4003 77.2178 17.9078 78.3641 17.9078C79.3712 17.9078 79.6893 17.5584 79.6893 16.9521V16.8532Z" fill="white"/>
<path d="M84.3541 13.7093H83.1812C83.1156 13.7094 83.0525 13.6839 83.0055 13.6383C82.9585 13.5928 82.9312 13.5307 82.9294 13.4655V12.4043C82.9328 12.3402 82.9609 12.2798 83.0077 12.2357C83.0546 12.1915 83.1167 12.1669 83.1812 12.167H84.3541C84.3859 12.1661 84.4177 12.1716 84.4474 12.1832C84.4771 12.1947 84.5042 12.212 84.527 12.2342C84.5499 12.2563 84.568 12.2827 84.5804 12.312C84.5928 12.3412 84.5992 12.3726 84.5992 12.4043V13.4655C84.5992 13.5301 84.5734 13.5922 84.5274 13.6379C84.4814 13.6836 84.4191 13.7093 84.3541 13.7093ZM84.3209 21.4142H83.2077C83.1421 21.4125 83.0798 21.3854 83.034 21.3386C82.9882 21.2918 82.9626 21.2291 82.9626 21.1638V14.8562C82.9643 14.792 82.9906 14.731 83.0362 14.6856C83.0819 14.6402 83.1433 14.614 83.2077 14.6123H84.3209C84.3848 14.614 84.4455 14.6405 84.49 14.686C84.5346 14.7316 84.5595 14.7926 84.5595 14.8562V21.1638C84.5595 21.228 84.5348 21.2898 84.4905 21.3364C84.4461 21.383 84.3854 21.4108 84.3209 21.4142Z" fill="white"/>
<path d="M89.1116 21.5131C87.2033 21.5131 86.2094 20.2344 86.2094 18.5076V17.5321C86.2094 15.8053 87.2033 14.5266 89.1116 14.5266C91.0199 14.5266 92.0072 15.8053 92.0072 17.5321V18.5076C92.0072 20.2344 91.0133 21.5131 89.1116 21.5131ZM90.4037 17.5585C90.4037 16.5698 89.9597 15.9305 89.1116 15.9305C88.2635 15.9305 87.7864 16.5896 87.7864 17.5585V18.5339C87.7864 19.5226 88.237 20.1619 89.1116 20.1619C89.9862 20.1619 90.4037 19.5028 90.4037 18.5339V17.5585Z" fill="white"/>
<path d="M98.9778 21.4142H97.858C97.7936 21.4108 97.7329 21.383 97.6885 21.3363C97.6441 21.2897 97.6194 21.228 97.6195 21.1637V17.2091C97.6195 16.1612 97.5201 15.8909 96.5858 15.8909C96.1033 15.9252 95.6357 16.0719 95.2209 16.3193V21.1703C95.2209 21.2356 95.1953 21.2984 95.1495 21.3451C95.1037 21.3919 95.0413 21.4191 94.9757 21.4208H93.8625C93.7969 21.4191 93.7345 21.3919 93.6887 21.3451C93.6429 21.2984 93.6173 21.2356 93.6173 21.1703V14.8627C93.6173 14.7981 93.6432 14.736 93.6891 14.6903C93.7351 14.6445 93.7975 14.6188 93.8625 14.6188H94.9161C94.9799 14.6206 95.0406 14.647 95.0851 14.6926C95.1297 14.7381 95.1546 14.7992 95.1546 14.8627V15.1132C95.734 14.7055 96.4334 14.5015 97.1424 14.5332C98.8851 14.5332 99.2363 15.7064 99.2363 17.2355V21.1901C99.2296 21.253 99.1993 21.3111 99.1513 21.3527C99.1034 21.3942 99.0414 21.4162 98.9778 21.4142Z" fill="white"/>
<path d="M28.8996 39.4868C28.905 24.8254 23.3079 10.7101 13.2421 0H-0.0100479C6.08565 4.64597 11.0242 10.6255 14.4231 17.4753C17.822 24.3251 19.5899 31.8613 19.5899 39.5C19.5899 47.1387 17.822 54.6749 14.4231 61.5247C11.0242 68.3745 6.08565 74.354 -0.0100479 79H13.2421C23.3119 68.2818 28.909 54.1568 28.8996 39.4868Z" fill="white"/>
<path d="M35.5993 39.6911C35.6129 25.4613 31.1531 11.5834 22.844 0H41.1122C47.9727 12.0379 51.5988 25.6313 51.6405 39.4689C51.6823 53.3065 48.1384 66.9213 41.3507 79H23.0958C31.2485 67.4978 35.6167 53.7647 35.5993 39.6911Z" fill="white"/>
</g>
<defs>
<clipPath id="clip0">
<rect width="280" height="79" fill="white"/>
</clipPath>
</defs>
</svg>
